<?xml version="1.0" standalone="no"?>
<!DOCTYPE svg PUBLIC "-//W3C//DTD SVG 1.1//EN" "http://www.w3.org/Graphics/SVG/1.1/DTD/svg11.dtd" >
<svg>
<metadata>
Created by FontForge 20090622 at Tue Feb  9 20:02:29 2016
 By deploy user
(c) by Abolfazl Seilsepour - +98 912 591 3420  -  seilsepor@yahoo.com
</metadata>
<defs>
<font id="FarNazaninBold" horiz-adv-x="0" >
  <font-face 
    font-family="Far.Nazanin"
    font-weight="700"
    font-stretch="normal"
    units-per-em="2048"
    panose-1="0 0 7 0 0 0 0 0 0 0"
    ascent="1638"
    descent="-410"
    bbox="-209 -1120 2119 2162"
    underline-thickness="100"
    underline-position="-670"
    unicode-range="U+0020-U+FEFC"
  />
<missing-glyph horiz-adv-x="1024" 
d="M128 0v1341h768v-1341h-768zM256 128h512v1085h-512v-1085z" />
    <glyph glyph-name="uFC60" unicode="&#x651;&#x64e;" arabic-form="isolated" 
d="M498 1547q0 -59 -25 -103q-30 -53 -85 -53q-59 0 -92 29q-58 -82 -118 -82q-94 0 -94 123q0 40 11 76q16 52 46 52q11 0 14 -65q2 -59 49 -59q39 0 53.5 78t27.5 78q17 0 37 -58.5t59 -58.5q46 0 46 51q0 20 -11 78l62 39q20 -41 20 -125zM494 1859l-391 -138v106
l391 137v-105z" />
    <glyph glyph-name="uFC61" unicode="&#x651;&#x64f;" arabic-form="isolated" 
d="M434 1973q0 -88 -66 -130q17 -21 44 -29l-59 -87q-42 8 -88 42q-141 -70 -185 -70q-23 0 -86 60q-13 12 -13 17q0 9 39 11q122 7 187 42q-23 35 -23 71q0 66 72 123q61 48 96 48q34 0 58 -31.5t24 -66.5zM351 1940q0 48 -35 48q-15 0 -30.5 -18.5t-15.5 -33.5
q0 -36 39 -58q42 32 42 62zM416 1565q0 -61 -24 -104q-29 -53 -86 -53q-59 0 -92 29q-58 -82 -118 -82q-94 0 -94 124q0 127 57 127q11 0 14 -64q2 -60 49 -60q39 0 53.5 78.5t27.5 78.5q17 0 37 -58.5t59 -58.5q46 0 46 51q0 20 -11 77l62 39q20 -40 20 -124z" />
    <glyph glyph-name="uE818" unicode="&#x651;&#x64b;" 
d="M407 1619q0 -61 -24 -104q-29 -53 -86 -53q-59 0 -92 29q-58 -82 -118 -82q-94 0 -94 124q0 127 57 127q11 0 14 -64q2 -60 49 -60q39 0 53.5 78.5t27.5 78.5q17 0 37 -58.5t59 -58.5q46 0 46 51q0 20 -11 77l62 39q20 -40 20 -124zM399 1845l-392 -138v106l392 137v-105
zM399 2057l-392 -139v106l392 138v-105z" />
    <glyph glyph-name="uFC5E" unicode="&#x651;&#x64c;" arabic-form="isolated" 
d="M588 1558q0 -59 -25 -103q-30 -53 -85 -53q-59 0 -92 29q-58 -82 -118 -82q-94 0 -94 123q0 40 11 76q16 52 46 52q11 0 14 -65q2 -59 49 -59q39 0 53.5 78t27.5 78q17 0 37 -58.5t59 -58.5q46 0 46 51q0 20 -11 78l62 39q20 -41 20 -125zM608 2048q0 -88 -66 -129
q17 -22 44 -29l-59 -87q-42 7 -88 42q-130 -65 -190 -65q-17 0 -69 49q-11 10 -11 15q12 4 63 16q17 4 23 27q14 49 -28 49q-29 0 -49 -21l-35 34q41 46 83 46q66 0 83 -44q14 -38 -15 -76q52 11 87 30q-23 35 -23 70q0 65 73 123q61 48 95 48t58 -31.5t24 -66.5zM525 2016
q0 47 -35 47q-16 0 -31 -18t-15 -34q0 -39 37 -60q44 28 44 65z" />
    <glyph glyph-name="uFC62" unicode="&#x651;&#x650;" arabic-form="isolated" 
d="M637 1492l-392 -138v105l392 138v-105zM648 1805q0 -59 -25 -103q-30 -53 -85 -53q-59 0 -93 29q-58 -82 -118 -82q-94 0 -94 123q0 39 11 76q16 52 46 52q11 0 14 -65q2 -59 50 -59q39 0 53.5 78t27.5 78q17 0 37 -58.5t59 -58.5q46 0 46 51q0 20 -12 78l63 39
q20 -41 20 -125z" />
    <glyph glyph-name="uFC5F" unicode="&#x651;&#x64d;" arabic-form="isolated" 
d="M388 1676l-392 -138v105l392 138v-105zM399 1989q0 -59 -25 -103q-30 -53 -85 -53q-59 0 -93 29q-58 -82 -118 -82q-94 0 -94 123q0 39 11 76q16 52 46 52q11 0 14 -65q2 -59 50 -59q39 0 53.5 78t27.5 78q17 0 37 -58.5t59 -58.5q46 0 46 51q0 20 -12 78l63 39
q20 -41 20 -125zM388 1483l-392 -138v105l392 138v-105z" />
    <glyph glyph-name="uFEF5" unicode="&#xfedf;&#xfe82;" horiz-adv-x="1110" arabic-form="isolated" 
d="M1104 990q2 -4 2 -7q0 -5 -14 -5q-20 0 -68 10q0 -259 -82 -444q-51 -115 -112 -167q68 -113 68 -189q0 -151 -108 -206q-73 -37 -313 -37q-81 0 -139 8l77 243q138 63 247 177q-143 181 -359 385q-22 -70 -27 -73q-5 2 -12 11q-155 201 -155 231q0 65 48 220q5 18 9 20
q4 -1 15 -10q188 -142 580 -668q78 72 78 245v186q0 71 -30 185l168 164q11 11 17 -6q54 -157 110 -273zM785 180q-15 58 -58 99q-85 -67 -154 -112q38 -11 104 -9q72 3 108 22zM560 1431q0 -63 -131 -116q-109 -44 -186 -44q-28 0 -81.5 14.5t-76.5 14.5q-17 0 -39 -30
t-35 -30q-29 0 -29 47q0 30 40 98q44 75 78 75q-18 0 -18 -3q0 -5 89 -23q130 -27 173 -27q70 0 133 24l60 23q23 0 23 -23z" />
    <glyph glyph-name="uFEF6" unicode="&#xfee0;&#xfe82;" horiz-adv-x="1273" arabic-form="final" 
d="M1299 1h-61q-180 0 -250 134q-50 95 -58 312q-122 -335 -261 -450q-22 -18 -427 -41q-76 -4 -76 4t63 38q175 84 311 175q155 104 155 152q0 43 -104 172q-125 155 -288 266l-11 -85q-55 51 -121 126q-79 90 -79 114q0 92 26 208q5 21 9 23q5 1 21 -10q332 -237 498 -465
q112 -154 129 -277q143 173 143 568q0 79 -6 161l151 119q18 14 23 14q6 0 6 -26v-819q0 -156 164 -156h43v-257zM560 1422q0 -62 -131 -115q-111 -45 -186 -45q-28 0 -81.5 14.5t-76.5 14.5q-17 0 -39 -30t-35 -30q-29 0 -29 47q0 29 40 98q44 76 78 76q-18 0 -18 -3
q0 -5 89 -24q130 -27 173 -27q70 0 133 24l60 23q23 0 23 -23z" />
    <glyph glyph-name="uFEF7" unicode="&#xfedf;&#xfe84;" horiz-adv-x="1110" arabic-form="isolated" 
d="M1104 990q2 -4 2 -7q0 -5 -14 -5q-20 0 -68 10q0 -259 -82 -444q-51 -115 -112 -167q68 -113 68 -189q0 -151 -108 -206q-73 -37 -313 -37q-81 0 -139 8l77 243q138 63 247 177q-143 181 -359 385q-22 -70 -27 -73q-5 2 -12 11q-155 201 -155 231q0 65 48 220q5 18 9 20
q4 -1 15 -10q188 -142 580 -668q78 72 78 245v186q0 71 -30 185l168 164q11 11 17 -6q54 -157 110 -273zM785 180q-15 58 -58 99q-85 -67 -154 -112q38 -11 104 -9q72 3 108 22zM388 1487q5 -15 1 -51q-4 -37 -12 -47q-140 -36 -351 -128l-1 74q33 18 94 48
q-29 13 -53.5 45.5t-24.5 61.5q0 58 68 122.5t127 64.5q29 0 67 -23q42 -25 42 -52q0 -40 -31 -40q-12 0 -46 13t-54 13q-25 0 -52 -13q-32 -15 -32 -37q0 -35 35 -62.5t71 -27.5q16 0 152 39z" />
    <glyph glyph-name="uFEF8" unicode="&#xfee0;&#xfe84;" horiz-adv-x="1273" arabic-form="final" 
d="M1299 1h-61q-180 0 -250 134q-50 95 -58 312q-122 -335 -261 -450q-22 -18 -427 -41q-76 -4 -76 4t63 38q175 84 311 175q155 104 155 152q0 43 -104 172q-125 155 -288 266l-11 -85q-55 51 -121 126q-79 90 -79 114q0 92 26 208q5 21 9 23q5 1 21 -10q332 -237 498 -465
q112 -154 129 -277q143 173 143 568q0 79 -6 161l151 119q18 14 23 14q6 0 6 -26v-819q0 -156 164 -156h43v-257zM388 1487q5 -15 1 -51q-4 -37 -12 -47q-140 -36 -351 -128l-1 74q33 18 94 48q-29 13 -53.5 45.5t-24.5 61.5q0 58 68 122.5t127 64.5q29 0 67 -23
q42 -25 42 -52q0 -40 -31 -40q-12 0 -46 13t-54 13q-25 0 -52 -13q-32 -15 -32 -37q0 -35 35 -62.5t71 -27.5q16 0 152 39z" />
    <glyph glyph-name="uFEF9" unicode="&#xfedf;&#xfe88;" horiz-adv-x="1110" arabic-form="isolated" 
d="M1104 990q2 -4 2 -7q0 -5 -14 -5q-20 0 -68 10q0 -259 -82 -444q-51 -115 -112 -167q68 -113 68 -189q0 -151 -108 -206q-73 -37 -313 -37q-81 0 -139 8l77 243q138 63 247 177q-143 181 -359 385q-22 -70 -27 -73q-5 2 -12 11q-155 201 -155 231q0 65 48 220q5 18 9 20
q4 -1 15 -10q188 -142 580 -668q78 72 78 245v186q0 71 -30 185l168 164q11 11 17 -6q54 -157 110 -273zM785 180q-15 58 -58 99q-85 -67 -154 -112q38 -11 104 -9q72 3 108 22zM441 -363q5 -15 1 -50q-4 -38 -12 -48q-141 -36 -352 -128v74q33 18 94 48q-27 12 -53 45.5
t-26 61.5q0 58 68.5 122.5t127.5 64.5q29 0 67 -23q42 -25 42 -52q0 -40 -31 -40q-12 0 -46 13t-54 13q-25 0 -52 -13q-32 -15 -32 -37q0 -35 35 -62.5t71 -27.5q26 0 76 15z" />
    <glyph glyph-name="uFEFA" unicode="&#xfee0;&#xfe88;" horiz-adv-x="1273" arabic-form="final" 
d="M1299 1h-61q-180 0 -250 134q-50 95 -58 312q-122 -335 -261 -450q-22 -18 -427 -41q-76 -4 -76 4t63 38q175 84 311 175q155 104 155 152q0 43 -104 172q-125 155 -288 266l-11 -85q-55 51 -121 126q-79 90 -79 114q0 92 26 208q5 21 9 23q5 1 21 -10q332 -237 498 -465
q112 -154 129 -277q143 173 143 568q0 79 -6 161l151 119q18 14 23 14q6 0 6 -26v-819q0 -156 164 -156h43v-257zM441 -363q5 -15 1 -50q-4 -38 -12 -48q-141 -36 -352 -128v74q33 18 94 48q-27 12 -53 45.5t-26 61.5q0 58 68.5 122.5t127.5 64.5q29 0 67 -23q42 -25 42 -52
q0 -40 -31 -40q-12 0 -46 13t-54 13q-25 0 -52 -13q-32 -15 -32 -37q0 -35 35 -62.5t71 -27.5q26 0 76 15z" />
    <glyph glyph-name="uFEFB" unicode="&#xfedf;&#xfe8e;" horiz-adv-x="1110" arabic-form="isolated" 
d="M1104 990q2 -4 2 -7q0 -5 -14 -5q-20 0 -68 10q0 -259 -82 -444q-51 -115 -112 -167q68 -113 68 -189q0 -151 -108 -206q-73 -37 -313 -37q-81 0 -139 8l77 243q138 63 247 177q-143 181 -359 385q-22 -70 -27 -73q-5 2 -12 11q-155 201 -155 231q0 65 48 220q5 18 9 20
q4 -1 15 -10q188 -142 580 -668q78 72 78 245v186q0 71 -30 185l168 164q11 11 17 -6q54 -157 110 -273zM785 180q-15 58 -58 99q-85 -67 -154 -112q38 -11 104 -9q72 3 108 22z" />
    <glyph glyph-name="uFEFC" unicode="&#xfee0;&#xfe8e;" horiz-adv-x="1273" arabic-form="final" 
d="M1299 1h-61q-180 0 -250 134q-50 95 -58 312q-122 -335 -261 -450q-22 -18 -427 -41q-76 -4 -76 4t63 38q175 84 311 175q155 104 155 152q0 43 -104 172q-125 155 -288 266l-11 -85q-55 51 -121 126q-79 90 -79 114q0 92 26 208q5 21 9 23q5 1 21 -10q332 -237 498 -465
q112 -154 129 -277q143 173 143 568q0 79 -6 161l151 119q18 14 23 14q6 0 6 -26v-819q0 -156 164 -156h43v-257z" />
    <glyph glyph-name="uFDF2" unicode="&#xfedf;&#xfee0;&#xfeea;" horiz-adv-x="1633" arabic-form="isolated" 
d="M1081 1424q23 -51 23 -115q0 -129 -62 -129q1 15 1 30q0 83 -34 149zM1252 1066q0 -53 -23 -93q-27 -48 -77 -48q-52 0 -83 26q-51 -74 -106 -74q-85 0 -85 111q0 34 11 68q15 47 41 47q10 0 13 -61q2 -50 44 -50q35 0 48 70.5t25 70.5q15 0 33 -53t53 -53q41 0 41 46
q0 19 -10 69l56 36q19 -36 19 -112zM1634 335q0 -201 -108 -290q-73 -60 -178 -60q-181 0 -251 152q-47 -153 -203 -153q-134 0 -204 80q-33 38 -70 135q-29 -53 -83 -115q-18 -7 -77 -7q-103 0 -178 22q-100 29 -100 86q0 95 34 141q69 93 171 159q48 31 157 74l-12 103
l118 96q33 27 38 27q6 0 11 -40q38 -324 59 -385q41 -122 162 -122q95 0 95 125q0 13 -2 33q-13 130 -47 384l188 110q42 -422 64 -509q36 -142 135 -142q88 0 88 129q0 79 -81 474l163 130q12 13 19 13q10 0 15 -26q77 -441 77 -624zM595 289l-33 160q-195 -70 -226 -142
q9 -24 125 -24q62 0 134 6z" />
    <glyph glyph-name="u0622" unicode="&#x622;" horiz-adv-x="685" arabic-form="isolated" 
d="M492 223q0 -73 -75 -233q-19 -41 -28 -41q-13 0 -21 92l-95 1057l184 153q18 15 26 15q9 0 9 -21v-1022zM675 1510q0 -62 -131 -115q-112 -45 -186 -45q-28 0 -81.5 14.5t-77.5 14.5q-16 0 -38.5 -29.5t-34.5 -29.5q-30 0 -30 46q0 30 41 99q44 75 77 75q-18 0 -18 -3
q0 -5 89 -24q130 -27 174 -27q39 0 109 24t84 24q23 0 23 -24z" />
    <glyph glyph-name="Hcircumflex" unicode="&#x622;" horiz-adv-x="669" arabic-form="final" 
d="M696 1h-118q-99 0 -169 66q-93 88 -93 269q0 119 -15 371q-17 285 -33 366q-6 28 4 38l165 134q30 24 35 24l1 -1q6 -1 6 -28l-2 -841q0 -142 159 -142h60v-256zM675 1510q0 -62 -131 -115q-112 -45 -186 -45q-28 0 -81.5 14.5t-77.5 14.5q-16 0 -38.5 -29.5t-34.5 -29.5
q-30 0 -30 46q0 30 41 99q44 75 77 75q-18 0 -18 -3q0 -5 89 -24q130 -27 174 -27q39 0 109 24t84 24q23 0 23 -24z" />
    <glyph glyph-name="u0623" unicode="&#x623;" horiz-adv-x="484" arabic-form="isolated" 
d="M422 227q0 -70 -76 -232q-20 -42 -28 -42q-12 0 -20 93l-95 1056l184 153q18 15 26 15q9 0 9 -21v-1022zM485 1487q5 -15 1 -51q-4 -37 -12 -47q-141 -36 -352 -128v74q33 18 94 48q-28 12 -53.5 45t-25.5 62q0 58 68.5 122.5t127.5 64.5q29 0 67 -23q42 -25 42 -52
q0 -40 -31 -40q-12 0 -46 13t-54 13q-25 0 -52 -13q-32 -15 -32 -37q0 -35 35 -62.5t71 -27.5q26 0 76 15z" />
    <glyph glyph-name="uFE84" unicode="&#x623;" horiz-adv-x="599" arabic-form="final" 
d="M625 1h-118q-98 0 -168 66q-93 88 -93 269q0 127 -15 371q-17 270 -34 366q-5 28 5 38l164 134q29 24 35 24q1 0 1 -1q7 -1 7 -28l-2 -841q0 -142 159 -142h59v-256zM477 1487q4 -15 0 -51q-4 -37 -12 -47q-140 -36 -351 -128l-1 74q33 18 94 48q-27 12 -52.5 45.5
t-25.5 61.5q0 58 68.5 122.5t126.5 64.5q29 0 67 -23q42 -25 42 -52q0 -40 -30 -40q-13 0 -47 13t-54 13q-25 0 -52 -13q-32 -15 -32 -37q0 -35 35 -62.5t71 -27.5q30 0 77 16q61 20 76 23z" />
    <glyph glyph-name="u0624" unicode="&#x624;" horiz-adv-x="782" arabic-form="isolated" 
d="M780 38q0 -261 -178 -452q-56 -60 -71 -60q-251 0 -399 51q-29 10 -2 20q178 64 347 199q185 147 185 245q-22 0 -66.5 -1t-66.5 -1q-136 0 -196 31q-83 43 -83 157q0 106 67 242q81 164 192 164q138 0 213 -160q58 -124 58 -279v-156zM625 291q-27 67 -85 104
q-44 28 -78 28q-31 0 -57 -22t-26 -52q0 -70 112 -70q52 0 134 12zM658 1062q4 -15 1 -50q-3 -36 -12 -47q-141 -36 -352 -129l-1 74l94 48q-26 12 -52 46t-26 61q0 58 68.5 123t127.5 65q29 0 67 -23q42 -25 42 -52q0 -41 -31 -41q-12 0 -46 13.5t-54 13.5q-26 0 -52 -13
q-32 -15 -32 -38q0 -35 35 -62t71 -27q29 0 79 16q66 21 73 22z" />
    <glyph glyph-name="uFE86" unicode="&#x624;" horiz-adv-x="920" arabic-form="final" 
d="M949 1h-176q0 -253 -172 -448q-55 -62 -70 -62q-252 0 -399 51q-28 10 -2 19q173 62 347 200q185 146 185 244h-67l-66 -1q-133 -2 -196 30q-83 42 -83 158q0 105 67 241q81 165 192 165q113 0 187 -119q58 -93 77 -221h176v-257zM625 255q-27 68 -85 105q-44 28 -78 28
q-31 0 -57 -22t-26 -52q0 -70 112 -70q52 0 134 11zM658 1027q4 -17 1 -50q-4 -36 -12 -48q-141 -36 -352 -128l-1 74l94 48q-26 12 -52 46t-26 61q0 58 68.5 122.5t127.5 64.5q29 0 67 -23q42 -25 42 -52q0 -40 -31 -40q-12 0 -46 13t-54 13q-25 0 -52 -13q-32 -15 -32 -37
q0 -35 35 -62.5t71 -27.5q29 0 76 16q61 20 76 23z" />
    <glyph glyph-name="u0625" unicode="&#x625;" horiz-adv-x="484" arabic-form="isolated" 
d="M422 227q0 -70 -76 -232q-20 -42 -28 -42q-12 0 -20 93l-95 1056l184 153q18 15 26 15q9 0 9 -21v-1022zM533 -336q2 -6 2 -19t-2 -32q-4 -38 -12 -47q-140 -36 -351 -129l-1 74l94 49q-26 11 -52 45t-26 61q0 58 68.5 123t127.5 65q29 0 67 -23q42 -25 42 -52
q0 -41 -31 -41q-12 0 -46 13.5t-54 13.5q-24 0 -52 -13q-32 -16 -32 -37q0 -35 35 -62.5t71 -27.5q22 0 152 39z" />
    <glyph glyph-name="uFE88" unicode="&#x625;" horiz-adv-x="617" arabic-form="final" 
d="M643 1h-118q-98 0 -168 66q-94 89 -94 269q0 114 -15 371q-16 276 -33 366q-5 28 4 38l165 134q30 24 35 24l1 -1q6 -1 6 -28l-1 -841q0 -142 158 -142h60v-256zM595 -310q4 -15 0 -51q-4 -37 -12 -47q-140 -36 -351 -128l-1 74q33 18 94 48q-27 12 -52.5 45.5
t-25.5 61.5q0 58 68.5 122.5t126.5 64.5q29 0 67 -23q42 -25 42 -52q0 -40 -30 -40q-13 0 -47 13t-54 13q-25 0 -52 -13q-32 -15 -32 -37q0 -35 35 -62.5t71 -27.5q30 0 77 16q61 20 76 23z" />
    <glyph glyph-name="u0626" unicode="&#x626;" horiz-adv-x="1381" arabic-form="isolated" 
d="M1374 488q5 -26 5 -40q0 -17 -7 -17t-28 11q-52 28 -166 28q-125 0 -217 -86q-71 -67 -71 -109q0 -47 76 -70q40 -12 156 -28q104 -14 144 -46q57 -45 57 -157q0 -279 -244 -397q-163 -79 -423 -79q-477 0 -477 393q0 79 48 230q56 177 113 177q40 0 40 -56
q0 -17 -30.5 -106.5t-30.5 -136.5q0 -253 380 -253q164 0 310 33q198 45 198 126q0 44 -116 58q-170 20 -216 38q-117 45 -117 165q0 134 118 315q132 203 281 203q97 0 163 -84q43 -55 54 -112zM538 632q4 -15 1 -50q-3 -36 -12 -47q-141 -36 -352 -129l-1 74l95 49
q-27 10 -53 44t-26 62q0 58 68.5 123t127.5 65q29 0 67 -23q42 -25 42 -52q0 -41 -31 -41q-12 0 -46 13.5t-54 13.5q-24 0 -52 -13q-32 -16 -32 -37q0 -35 35 -62.5t71 -27.5q29 0 79 16q66 21 73 22z" />
    <glyph glyph-name="uFE8A" unicode="&#x626;" horiz-adv-x="1431" arabic-form="final" 
d="M1457 1h-86q-54 0 -161.5 15t-161.5 15q-46 0 -86 -12q-59 -18 -59 -53q0 -21 86 -34l104 -10q113 -14 159 -36q58 -28 58 -90q0 -209 -224 -302q-157 -65 -402 -65q-507 0 -507 371q0 101 66 245q63 138 99 138q47 0 47 -42q0 -8 -28 -89.5t-28 -132.5q0 -164 164 -219
q101 -34 327 -34q76 0 203 22q152 26 152 61q0 17 -104 25q-140 10 -194 26q-105 30 -105 102q0 110 105 216q138 140 380 140h196v-257zM547 544q4 -15 1 -50q-3 -36 -12 -47q-141 -36 -352 -129l-1 74l94 48q-26 12 -52 46t-26 61q0 58 68.5 123t127.5 65q29 0 67 -23
q42 -25 42 -52q0 -41 -31 -41q-12 0 -46 13.5t-54 13.5q-26 0 -52 -13q-32 -15 -32 -38q0 -35 35 -62t71 -27q29 0 79 16q66 21 73 22z" />
    <glyph glyph-name="uFE8B" unicode="&#x626;" horiz-adv-x="370" arabic-form="initial" 
d="M367 392q0 -148 -57 -251q-78 -140 -240 -140h-96v257h111q144 0 144 54q0 47 -112 170q-13 14 0 32l117 163q15 21 30 5q45 -48 75 -136q28 -82 28 -154zM399 1069q4 -15 1 -50q-3 -36 -12 -47q-141 -36 -352 -129l-1 74l94 48q-26 12 -52 46t-26 61q0 58 68.5 123
t127.5 65q29 0 67 -23q42 -25 42 -52q0 -41 -31 -41q-12 0 -46 13.5t-54 13.5q-26 0 -52 -13q-32 -15 -32 -38q0 -35 35 -62t71 -27q29 0 79 16q66 21 73 22z" />
    <glyph glyph-name="uFE8C" unicode="&#x626;" horiz-adv-x="715" arabic-form="medial" 
d="M742 1h-95q-77 0 -148.5 40.5t-110.5 106.5q-87 -147 -256 -147h-158v257h118q146 0 202 65q29 33 45 121q12 65 49 65q36 0 47 -65q15 -88 38 -121q46 -65 166 -65h103v-257zM478 916q5 -15 1 -50q-4 -38 -12 -48q-141 -36 -352 -128v74q33 18 94 48q-27 12 -53 45.5
t-26 61.5q0 58 68.5 122.5t127.5 64.5q29 0 67 -23q42 -25 42 -52q0 -40 -31 -40q-12 0 -46 13t-54 13q-25 0 -52 -13q-32 -15 -32 -37q0 -35 35 -62.5t71 -27.5q26 0 76 15z" />
    <glyph glyph-name="u0627" unicode="&#x627;" horiz-adv-x="398" arabic-form="isolated" 
d="M396 227q0 -71 -76 -232q-20 -42 -28 -42q-13 0 -21 93l-95 1056l184 153q18 15 26 15q10 0 10 -21v-1022z" />
    <glyph glyph-name="uFE8E" unicode="&#x627;" horiz-adv-x="581" arabic-form="final" 
d="M608 1h-118q-99 0 -169 66q-93 88 -93 269q0 123 -15 371q-17 278 -33 366q-5 29 4 38l165 134q30 24 35 24l1 -1q6 -1 6 -28l-2 -841q0 -142 159 -142h60v-256z" />
    <glyph glyph-name="u0628" unicode="&#x628;" horiz-adv-x="1547" arabic-form="isolated" 
d="M1545 402q0 -216 -143 -312q-160 -108 -637 -108q-259 0 -392 59q-196 87 -196 310q0 99 52 194q47 85 78 85q38 0 38 -42q0 -17 -15.5 -62.5t-15.5 -70.5q0 -158 175 -201q78 -19 329 -19q585 0 585 98q0 18 -51 84q-43 56 -68 81l131 165q11 14 14 15q5 1 16 -12
q100 -121 100 -264zM980 -310l-135 -136l-136 136l136 136z" />
    <glyph glyph-name="uFE90" unicode="&#x628;" horiz-adv-x="1693" arabic-form="final" 
d="M1720 1h-75q-91 0 -166 63q-61 51 -82 114q-143 -123 -341 -167q-130 -29 -335 -29q-544 0 -544 369q0 100 48 194q43 85 74 85q38 0 38 -42q0 -22 -12.5 -67t-12.5 -68q0 -137 154 -186q101 -32 308 -32q386 0 583 146q31 23 86 83q43 47 62 47q35 0 35 -49
q0 -22 -49 -127q31 -77 169 -77h60v-257zM980 -310l-135 -136l-136 136l136 136z" />
    <glyph glyph-name="uFE91" unicode="&#x628;" horiz-adv-x="370" arabic-form="initial" 
d="M367 392q0 -148 -57 -251q-78 -140 -240 -140h-96v257h111q144 0 144 54q0 47 -112 170q-13 14 0 32l117 163q15 21 30 5q45 -48 75 -136q28 -82 28 -154zM329 -310l-136 -136l-136 136l136 136z" />
    <glyph glyph-name="uFE92" unicode="&#x628;" horiz-adv-x="715" arabic-form="medial" 
d="M742 1h-95q-77 0 -148.5 40.5t-110.5 106.5q-87 -147 -256 -147h-158v257h118q146 0 202 65q29 33 45 121q12 65 49 65q36 0 47 -65q15 -88 38 -121q46 -65 166 -65h103v-257zM443 -315l-136 -136l-135 136l135 135z" />
    <glyph glyph-name="u067E" unicode="&#x67e;" horiz-adv-x="1547" arabic-form="isolated" 
d="M1545 402q0 -216 -143 -312q-160 -108 -637 -108q-259 0 -392 59q-196 87 -196 310q0 99 52 194q47 85 78 85q38 0 38 -42q0 -17 -15.5 -62.5t-15.5 -70.5q0 -158 175 -201q78 -19 329 -19q585 0 585 98q0 18 -51 84q-43 56 -68 81l131 165q11 14 14 15q5 1 16 -12
q100 -121 100 -264zM1113 -230l-122 -122l-122 122l122 123zM840 -230l-122 -122l-123 122l123 123zM980 -433l-123 -122l-122 122l122 123z" />
    <glyph glyph-name="uFB57" unicode="&#x67e;" horiz-adv-x="1693" arabic-form="final" 
d="M1720 1h-75q-91 0 -166 63q-61 51 -82 114q-143 -123 -341 -167q-130 -29 -335 -29q-544 0 -544 369q0 100 48 194q43 85 74 85q38 0 38 -42q0 -22 -12.5 -67t-12.5 -68q0 -137 154 -186q101 -32 308 -32q386 0 583 146q31 23 86 83q43 47 62 47q35 0 35 -49
q0 -22 -49 -127q31 -77 169 -77h60v-257zM1113 -230l-122 -122l-122 122l122 123zM840 -230l-122 -122l-123 122l123 123zM980 -433l-123 -122l-122 122l122 123z" />
    <glyph glyph-name="uFB58" unicode="&#x67e;" horiz-adv-x="537" arabic-form="initial" 
d="M367 392q0 -148 -57 -251q-78 -140 -240 -140h-96v257h111q144 0 144 54q0 47 -112 170q-13 14 0 32l117 163q15 21 30 5q45 -48 75 -136q28 -82 28 -154zM541 -230l-123 -122l-122 122l122 123zM268 -230l-123 -122l-122 122l122 123zM407 -433l-122 -122l-123 122
l123 123z" />
    <glyph glyph-name="uFB59" unicode="&#x67e;" horiz-adv-x="715" arabic-form="medial" 
d="M742 1h-95q-77 0 -148.5 40.5t-110.5 106.5q-87 -147 -256 -147h-158v257h118q146 0 202 65q29 33 45 121q12 65 49 65q36 0 47 -65q15 -88 38 -121q46 -65 166 -65h103v-257zM611 -230l-122 -122l-123 122l123 123zM338 -230l-122 -122l-123 122l123 123zM477 -433
l-122 -122l-122 122l122 123z" />
    <glyph glyph-name="u062A" unicode="&#x62a;" horiz-adv-x="1547" arabic-form="isolated" 
d="M1545 402q0 -216 -143 -312q-160 -108 -637 -108q-259 0 -392 59q-196 87 -196 310q0 99 52 194q47 85 78 85q38 0 38 -42q0 -17 -15.5 -62.5t-15.5 -70.5q0 -158 175 -201q78 -19 329 -19q585 0 585 98q0 18 -51 84q-43 56 -68 81l131 165q11 14 14 15q5 1 16 -12
q100 -121 100 -264zM1098 791l-123 -122l-122 122l122 122zM824 791l-122 -122l-122 122l122 122z" />
    <glyph glyph-name="uFE96" unicode="&#x62a;" horiz-adv-x="1693" arabic-form="final" 
d="M1720 1h-75q-91 0 -166 63q-61 51 -82 114q-143 -123 -341 -167q-130 -29 -335 -29q-544 0 -544 369q0 100 48 194q43 85 74 85q38 0 38 -42q0 -22 -12.5 -67t-12.5 -68q0 -137 154 -186q101 -32 308 -32q386 0 583 146q31 23 86 83q43 47 62 47q35 0 35 -49
q0 -22 -49 -127q31 -77 169 -77h60v-257zM1098 791l-123 -122l-122 122l122 122zM824 791l-122 -122l-122 122l122 122z" />
    <glyph glyph-name="uFE97" unicode="&#x62a;" horiz-adv-x="534" arabic-form="initial" 
d="M367 392q0 -148 -57 -251q-78 -140 -240 -140h-96v257h111q144 0 144 54q0 47 -112 170q-13 14 0 32l117 163q15 21 30 5q45 -48 75 -136q28 -82 28 -154zM541 976l-123 -122l-122 122l122 122zM268 976l-123 -122l-122 122l122 122z" />
    <glyph glyph-name="uFE98" unicode="&#x62a;" horiz-adv-x="715" arabic-form="medial" 
d="M742 1h-95q-77 0 -148.5 40.5t-110.5 106.5q-87 -147 -256 -147h-158v257h118q146 0 202 65q29 33 45 121q12 65 49 65q36 0 47 -65q15 -88 38 -121q46 -65 166 -65h103v-257zM587 791l-123 -122l-122 122l122 122zM314 791l-123 -122l-122 122l122 122z" />
    <glyph glyph-name="u062B" unicode="&#x62b;" horiz-adv-x="1547" arabic-form="isolated" 
d="M1545 402q0 -216 -143 -312q-160 -108 -637 -108q-259 0 -392 59q-196 87 -196 310q0 99 52 194q47 85 78 85q38 0 38 -42q0 -17 -15.5 -62.5t-15.5 -70.5q0 -158 175 -201q78 -19 329 -19q585 0 585 98q0 18 -51 84q-43 56 -68 81l131 165q11 14 14 15q5 1 16 -12
q100 -121 100 -264zM582 735l123 122l122 -122l-122 -123zM855 735l123 122l122 -122l-122 -123zM716 937l123 123l122 -123l-122 -122z" />
    <glyph glyph-name="uFE9A" unicode="&#x62b;" horiz-adv-x="1693" arabic-form="final" 
d="M1720 1h-75q-91 0 -166 63q-61 51 -82 114q-143 -123 -341 -167q-130 -29 -335 -29q-544 0 -544 369q0 100 48 194q43 85 74 85q38 0 38 -42q0 -22 -12.5 -67t-12.5 -68q0 -137 154 -186q101 -32 308 -32q386 0 583 146q31 23 86 83q43 47 62 47q35 0 35 -49
q0 -22 -49 -127q31 -77 169 -77h60v-257zM582 735l123 122l122 -122l-122 -123zM855 735l123 122l122 -122l-122 -123zM716 937l123 123l122 -123l-122 -122z" />
    <glyph glyph-name="uFE9B" unicode="&#x62b;" horiz-adv-x="520" arabic-form="initial" 
d="M367 392q0 -148 -57 -251q-78 -140 -240 -140h-96v257h111q144 0 144 54q0 47 -112 170q-13 14 0 32l117 163q15 21 30 5q45 -48 75 -136q28 -82 28 -154zM1 937l122 123l123 -123l-123 -122zM274 937l122 123l123 -123l-123 -122zM135 1140l122 122l123 -122l-123 -123z
" />
    <glyph glyph-name="uFE9C" unicode="&#x62b;" horiz-adv-x="715" arabic-form="medial" 
d="M742 1h-95q-77 0 -148.5 40.5t-110.5 106.5q-87 -147 -256 -147h-158v257h118q146 0 202 65q29 33 45 121q12 65 49 65q36 0 47 -65q15 -88 38 -121q46 -65 166 -65h103v-257zM98 779l122 122l123 -122l-123 -123zM371 779l122 122l123 -122l-123 -123zM232 981l122 123
l123 -123l-123 -122z" />
    <glyph glyph-name="u062C" unicode="&#x62c;" horiz-adv-x="1257" arabic-form="isolated" 
d="M1246 -382q-110 -162 -446 -162q-259 0 -420 91q-203 115 -203 353q0 197 176 354q141 126 361 203q-221 45 -275 45q-57 0 -121.5 -56.5t-63.5 -56.5q-45 0 -45 37q0 32 29 91q48 98 76 131q68 81 166 81q32 0 175 -24q194 -33 285 -42q156 -16 291 1q25 3 25 -2
q-2 -9 -11 -30l-84 -196q-189 -6 -289 -28q-143 -32 -266 -117q-197 -137 -197 -339q0 -344 491 -344q212 0 331 36q10 3 14 3q7 0 9 -5q4 -7 -8 -24zM989 -11l-135 -135l-136 135l136 136z" />
    <glyph glyph-name="uFE9E" unicode="&#x62c;" horiz-adv-x="1374" arabic-form="final" 
d="M1401 1h-143q-371 0 -371 333q0 37 5 78q-159 -34 -288 -123q-195 -134 -195 -337q0 -344 491 -344q212 0 331 36q10 3 14 3q7 0 9 -5q4 -7 -8 -24q-110 -162 -446 -162q-259 0 -420 91q-203 115 -203 353q0 197 176 354q141 126 361 203q-221 45 -275 45
q-57 0 -121.5 -56.5t-63.5 -56.5q-45 0 -45 37q0 32 29 91q48 98 76 131q68 81 166 81q33 0 175 -24q193 -33 285 -42q158 -16 291 1q29 4 29 -3q0 -4 -11 -29l-88 -196q-76 0 -166 -10q0 -116 102 -151q49 -17 171 -17h133v-257zM928 -72l-136 -136l-136 136l136 135z" />
    <glyph glyph-name="uFE9F" unicode="&#x62c;" horiz-adv-x="1120" arabic-form="initial" 
d="M1113 468l-129 -185q-132 0 -279 -73l-275 -136q-156 -73 -372 -73h-81v257h108q214 0 345 31q108 26 243 94l-159 61q-126 48 -180 48t-117 -50.5t-68 -50.5q-40 0 -40 45q0 30 29 82q110 195 246 195q68 0 314 -110.5t369 -110.5q52 0 52 -10q-1 -7 -6 -14zM839 -266
l-135 -136l-136 136l136 136z" />
    <glyph glyph-name="uFEA0" unicode="&#x62c;" horiz-adv-x="1234" arabic-form="medial" 
d="M1259 1h-198q-328 0 -328 308q-333 -308 -678 -308h-81v257h108q182 0 313 47q89 32 282 144q-233 81 -345 81q-54 0 -117 -59.5t-68 -59.5q-38 0 -38 35q0 38 17 72q116 234 268 234q79 0 298.5 -70.5t341.5 -70.5q79 0 79 -7q-1 -3 -7 -16l-85 -183q-111 0 -184 -30
q0 -77 89 -103q48 -14 154 -14h179v-257zM725 -266l-136 -136l-135 136l135 136z" />
    <glyph glyph-name="u0686" unicode="&#x686;" horiz-adv-x="1257" arabic-form="isolated" 
d="M1246 -382q-110 -162 -446 -162q-259 0 -420 91q-203 115 -203 353q0 197 176 354q141 126 361 203q-221 45 -275 45q-57 0 -121.5 -56.5t-63.5 -56.5q-45 0 -45 37q0 32 29 91q48 98 76 131q68 81 166 81q32 0 175 -24q194 -33 285 -42q156 -16 291 1q25 3 25 -2
q-2 -9 -11 -30l-84 -196q-189 -6 -289 -28q-143 -32 -266 -117q-197 -137 -197 -339q0 -344 491 -344q212 0 331 36q10 3 14 3q7 0 9 -5q4 -7 -8 -24zM1153 39l-122 -123l-123 123l123 122zM880 39l-122 -123l-123 123l123 122zM1019 -164l-122 -122l-123 122l123 123z" />
    <glyph glyph-name="uFB7B" unicode="&#x686;" horiz-adv-x="1374" arabic-form="final" 
d="M1401 1h-143q-371 0 -371 333q0 37 5 78q-159 -34 -288 -123q-195 -134 -195 -337q0 -344 491 -344q212 0 331 36q10 3 14 3q7 0 9 -5q4 -7 -8 -24q-110 -162 -446 -162q-259 0 -420 91q-203 115 -203 353q0 197 176 354q141 126 361 203q-221 45 -275 45
q-57 0 -121.5 -56.5t-63.5 -56.5q-45 0 -45 37q0 32 29 91q48 98 76 131q68 81 166 81q33 0 175 -24q193 -33 285 -42q158 -16 291 1q29 4 29 -3q0 -4 -11 -29l-88 -196q-76 0 -166 -10q0 -116 102 -151q49 -17 171 -17h133v-257zM1056 -14l-122 -123l-123 123l123 122z
M783 -14l-122 -123l-123 123l123 122zM922 -217l-122 -122l-123 122l123 123z" />
    <glyph glyph-name="uFB7C" unicode="&#x686;" horiz-adv-x="1120" arabic-form="initial" 
d="M1113 468l-129 -185q-132 0 -279 -73l-275 -136q-156 -73 -372 -73h-81v257h108q214 0 345 31q108 26 243 94l-159 61q-126 48 -180 48t-117 -50.5t-68 -50.5q-40 0 -40 45q0 30 29 82q110 195 246 195q68 0 314 -110.5t369 -110.5q52 0 52 -10q-1 -7 -6 -14zM924 -181
l-122 -123l-123 123l123 122zM651 -181l-122 -123l-123 123l123 122zM790 -384l-122 -122l-123 122l123 122z" />
    <glyph glyph-name="uFB7D" unicode="&#x686;" horiz-adv-x="1234" arabic-form="medial" 
d="M1259 1h-198q-328 0 -328 308q-333 -308 -678 -308h-81v257h108q182 0 313 47q89 32 282 144q-233 81 -345 81q-54 0 -117 -59.5t-68 -59.5q-38 0 -38 35q0 38 17 72q116 234 268 234q79 0 298.5 -70.5t341.5 -70.5q79 0 79 -7q-1 -3 -7 -16l-85 -183q-111 0 -184 -30
q0 -77 89 -103q48 -14 154 -14h179v-257zM871 -181l-122 -123l-123 123l123 122zM598 -181l-122 -123l-123 123l123 122zM737 -384l-122 -122l-123 122l123 122z" />
    <glyph glyph-name="u062D" unicode="&#x62d;" horiz-adv-x="1257" arabic-form="isolated" 
d="M1246 -382q-110 -162 -446 -162q-259 0 -420 91q-203 115 -203 353q0 197 176 354q141 126 361 203q-221 45 -275 45q-57 0 -121.5 -56.5t-63.5 -56.5q-45 0 -45 37q0 32 29 91q48 98 76 131q68 81 166 81q32 0 175 -24q194 -33 285 -42q156 -16 291 1q25 3 25 -2
q-2 -9 -11 -30l-84 -196q-189 -6 -289 -28q-143 -32 -266 -117q-197 -137 -197 -339q0 -344 491 -344q212 0 331 36q10 3 14 3q7 0 9 -5q4 -7 -8 -24z" />
    <glyph glyph-name="uFEA2" unicode="&#x62d;" horiz-adv-x="1374" arabic-form="final" 
d="M1401 1h-143q-371 0 -371 333q0 37 5 78q-159 -34 -288 -123q-195 -134 -195 -337q0 -344 491 -344q212 0 331 36q10 3 14 3q7 0 9 -5q4 -7 -8 -24q-110 -162 -446 -162q-259 0 -420 91q-203 115 -203 353q0 197 176 354q141 126 361 203q-221 45 -275 45
q-57 0 -121.5 -56.5t-63.5 -56.5q-45 0 -45 37q0 32 29 91q48 98 76 131q68 81 166 81q33 0 175 -24q193 -33 285 -42q158 -16 291 1q29 4 29 -3q0 -4 -11 -29l-88 -196q-76 0 -166 -10q0 -116 102 -151q49 -17 171 -17h133v-257z" />
    <glyph glyph-name="uFEA3" unicode="&#x62d;" horiz-adv-x="1120" arabic-form="initial" 
d="M1113 468l-129 -185q-132 0 -279 -73l-275 -136q-156 -73 -372 -73h-81v257h108q214 0 345 31q108 26 243 94l-159 61q-126 48 -180 48t-117 -50.5t-68 -50.5q-40 0 -40 45q0 30 29 82q110 195 246 195q68 0 314 -110.5t369 -110.5q52 0 52 -10q-1 -7 -6 -14z" />
    <glyph glyph-name="uFEA4" unicode="&#x62d;" horiz-adv-x="1234" arabic-form="medial" 
d="M1259 1h-198q-328 0 -328 308q-333 -308 -678 -308h-81v257h108q182 0 313 47q89 32 282 144q-233 81 -345 81q-54 0 -117 -59.5t-68 -59.5q-38 0 -38 35q0 38 17 72q116 234 268 234q79 0 298.5 -70.5t341.5 -70.5q79 0 79 -7q-1 -3 -7 -16l-85 -183q-111 0 -184 -30
q0 -77 89 -103q48 -14 154 -14h179v-257z" />
    <glyph glyph-name="u062E" unicode="&#x62e;" horiz-adv-x="1257" arabic-form="isolated" 
d="M1246 -382q-110 -162 -446 -162q-259 0 -420 91q-203 115 -203 353q0 197 176 354q141 126 361 203q-221 45 -275 45q-57 0 -121.5 -56.5t-63.5 -56.5q-45 0 -45 37q0 32 29 91q48 98 76 131q68 81 166 81q32 0 175 -24q194 -33 285 -42q156 -16 291 1q25 3 25 -2
q-2 -9 -11 -30l-84 -196q-189 -6 -289 -28q-143 -32 -266 -117q-197 -137 -197 -339q0 -344 491 -344q212 0 331 36q10 3 14 3q7 0 9 -5q4 -7 -8 -24zM875 1051l-136 -136l-136 136l136 136z" />
    <glyph glyph-name="uFEA6" unicode="&#x62e;" horiz-adv-x="1374" arabic-form="final" 
d="M1401 1h-143q-371 0 -371 333q0 37 5 78q-159 -34 -288 -123q-195 -134 -195 -337q0 -344 491 -344q212 0 331 36q10 3 14 3q7 0 9 -5q4 -7 -8 -24q-110 -162 -446 -162q-259 0 -420 91q-203 115 -203 353q0 197 176 354q141 126 361 203q-221 45 -275 45
q-57 0 -121.5 -56.5t-63.5 -56.5q-45 0 -45 37q0 32 29 91q48 98 76 131q68 81 166 81q33 0 175 -24q193 -33 285 -42q158 -16 291 1q29 4 29 -3q0 -4 -11 -29l-88 -196q-76 0 -166 -10q0 -116 102 -151q49 -17 171 -17h133v-257zM875 1051l-136 -136l-136 136l136 136z" />
    <glyph glyph-name="uFEA7" unicode="&#x62e;" horiz-adv-x="1120" arabic-form="initial" 
d="M1113 468l-129 -185q-132 0 -279 -73l-275 -136q-156 -73 -372 -73h-81v257h108q214 0 345 31q108 26 243 94l-159 61q-126 48 -180 48t-117 -50.5t-68 -50.5q-40 0 -40 45q0 30 29 82q110 195 246 195q68 0 314 -110.5t369 -110.5q52 0 52 -10q-1 -7 -6 -14zM743 1051
l-136 -136l-136 136l136 136z" />
    <glyph glyph-name="uFEA8" unicode="&#x62e;" horiz-adv-x="1234" arabic-form="medial" 
d="M1259 1h-198q-328 0 -328 308q-333 -308 -678 -308h-81v257h108q182 0 313 47q89 32 282 144q-233 81 -345 81q-54 0 -117 -59.5t-68 -59.5q-38 0 -38 35q0 38 17 72q116 234 268 234q79 0 298.5 -70.5t341.5 -70.5q79 0 79 -7q-1 -3 -7 -16l-85 -183q-111 0 -184 -30
q0 -77 89 -103q48 -14 154 -14h179v-257zM795 1051l-135 -136l-136 136l136 136z" />
    <glyph glyph-name="u062F" unicode="&#x62f;" horiz-adv-x="895" arabic-form="isolated" 
d="M891 364q0 -363 -454 -363q-260 0 -260 243q0 23 3 48q16 133 72 133q32 0 36 -46q5 -63 26 -87q40 -46 162 -46q77 0 166 15q131 22 131 66q0 79 -140 196q-127 106 -208 128l60 224q6 23 13 23q6 0 22 -10q146 -93 248 -222q123 -156 123 -302z" />
    <glyph glyph-name="uFEAA" unicode="&#x62f;" horiz-adv-x="1141" arabic-form="final" 
d="M1167 1h-107q-143 0 -242 184q-83 -104 -135 -134q-86 -50 -252 -50q-251 0 -251 232q0 35 8 77q24 127 81 127q32 0 33 -50q2 -67 19 -92q34 -49 148 -49q278 0 278 106q0 67 -140 364l113 149q13 18 16 18q7 0 17 -27l174 -464q51 -137 143 -137h97v-254z" />
    <glyph glyph-name="u0630" unicode="&#x630;" horiz-adv-x="895" arabic-form="isolated" 
d="M891 364q0 -363 -454 -363q-260 0 -260 243q0 23 3 48q16 133 72 133q32 0 36 -46q5 -63 26 -87q40 -46 162 -46q77 0 166 15q131 22 131 66q0 79 -140 196q-127 106 -208 128l60 224q6 23 13 23q6 0 22 -10q146 -93 248 -222q123 -156 123 -302zM593 1155l-136 -136
l-135 136l135 135z" />
    <glyph glyph-name="uFEAC" unicode="&#x630;" horiz-adv-x="1141" arabic-form="final" 
d="M1167 1h-107q-143 0 -242 184q-83 -104 -135 -134q-86 -50 -252 -50q-251 0 -251 232q0 35 8 77q24 127 81 127q32 0 33 -50q2 -67 19 -92q34 -49 148 -49q278 0 278 106q0 67 -140 364l113 149q13 18 16 18q7 0 17 -27l174 -464q51 -137 143 -137h97v-254zM743 1139
l-136 -136l-136 136l136 136z" />
    <glyph glyph-name="u0631" unicode="&#x631;" horiz-adv-x="769" arabic-form="isolated" 
d="M767 70q0 -286 -190 -483q-59 -61 -72 -61q-269 0 -399 51q-28 11 -2 20q185 66 348 192q187 144 187 259q0 48 -68 134q-57 72 -111 113l97 205q9 19 24 4q186 -186 186 -434z" />
    <glyph glyph-name="uFEAE" unicode="&#x631;" horiz-adv-x="928" arabic-form="final" 
d="M954 1h-44q-97 0 -150 26q0 -304 -184 -482q-56 -54 -71 -54q-267 0 -399 51q-26 10 -2 19q181 67 351 195q190 143 190 246q0 49 -69 133q-51 62 -113 115l105 212q9 18 22 0q150 -204 277 -204h87v-257z" />
    <glyph glyph-name="u0632" unicode="&#x632;" horiz-adv-x="769" arabic-form="isolated" 
d="M767 70q0 -286 -190 -483q-59 -61 -72 -61q-269 0 -399 51q-28 11 -2 20q185 66 348 192q187 144 187 259q0 48 -68 134q-57 72 -111 113l97 205q9 19 24 4q186 -186 186 -434zM654 818l-135 -135l-136 135l136 136z" />
    <glyph glyph-name="uFEB0" unicode="&#x632;" horiz-adv-x="928" arabic-form="final" 
d="M954 1h-44q-97 0 -150 26q0 -304 -184 -482q-56 -54 -71 -54q-267 0 -399 51q-26 10 -2 19q181 67 351 195q190 143 190 246q0 49 -69 133q-51 62 -113 115l105 212q9 18 22 0q150 -204 277 -204h87v-257zM654 778l-135 -136l-136 136l136 135z" />
    <glyph glyph-name="u0698" unicode="&#x698;" horiz-adv-x="769" arabic-form="isolated" 
d="M767 70q0 -286 -190 -483q-59 -61 -72 -61q-269 0 -399 51q-28 11 -2 20q185 66 348 192q187 144 187 259q0 48 -68 134q-57 72 -111 113l97 205q9 19 24 4q186 -186 186 -434zM256 792l123 122l122 -122l-122 -123zM529 792l123 122l122 -122l-122 -123zM390 994
l123 123l122 -123l-122 -122z" />
    <glyph glyph-name="uFB8B" unicode="&#x698;" horiz-adv-x="928" arabic-form="final" 
d="M954 1h-44q-97 0 -150 26q0 -304 -184 -482q-56 -54 -71 -54q-267 0 -399 51q-26 10 -2 19q181 67 351 195q190 143 190 246q0 49 -69 133q-51 62 -113 115l105 212q9 18 22 0q150 -204 277 -204h87v-257zM274 757l122 122l123 -122l-123 -123zM547 757l122 122l123 -122
l-123 -123zM408 959l122 123l123 -123l-123 -122z" />
    <glyph glyph-name="u0633" unicode="&#x633;" horiz-adv-x="1902" arabic-form="isolated" 
d="M1899 383q0 -139 -57 -247q-71 -135 -202 -135q-115 0 -190 128q-72 -127 -174 -127q-36 0 -76 14q7 -51 7 -98q0 -243 -184 -360q-152 -96 -409 -96q-231 0 -344 127q-91 102 -91 258q0 79 48 230q56 177 113 177q40 0 40 -56q0 -17 -30.5 -106.5t-30.5 -136.5
q0 -142 113 -199q82 -41 243 -41q158 0 287 49q148 56 148 146q0 56 -87 176q-74 102 -133 154l99 202q11 22 26 0q127 -184 247 -184q73 0 104 60q7 13 31 111q15 60 50 60q33 0 46 -61q19 -88 35 -114q38 -61 131 -61q112 0 112 84q0 42 -86 149l91 141q17 27 20 28
q6 -3 20 -21q25 -32 50 -96q33 -85 33 -155z" />
    <glyph glyph-name="uFEB2" unicode="&#x633;" horiz-adv-x="2091" arabic-form="final" 
d="M2119 1h-122q-120 0 -199 137q-78 -137 -179 -137q-129 0 -174 128q-55 -127 -168 -127q-36 0 -77 14q7 -51 7 -98q0 -243 -184 -360q-152 -96 -409 -96q-231 0 -344 127q-91 102 -91 258q0 79 48 230q56 177 113 177q40 0 40 -56q0 -17 -30.5 -106.5t-30.5 -136.5
q0 -142 113 -199q82 -41 243 -41q158 0 287 49q148 56 148 146q0 56 -87 176q-74 102 -133 154l99 202q11 22 26 0q128 -185 247 -185q68 0 96 60q5 16 30 112q16 60 55 60q34 0 46 -60q19 -96 27 -112q29 -60 103 -60q70 0 100 60q3 7 31 112q16 60 54 60q33 0 45 -60
q18 -86 33 -111q37 -60 133 -60h104v-257z" />
    <glyph glyph-name="uFEB3" unicode="&#x633;" horiz-adv-x="1224" arabic-form="initial" 
d="M1221 383q0 -139 -56 -247q-70 -135 -202 -135q-124 0 -205 137q-77 -137 -196 -137q-128 0 -206 137q-80 -137 -243 -137h-139v257h164q89 0 127 60q15 23 36 111q15 60 49 60q37 0 51 -60q22 -94 32 -112q33 -60 120 -60q86 0 122 60q11 18 36 112q16 60 54 60
q33 0 46 -61q19 -94 31 -114q35 -61 125 -61q125 0 125 84q0 42 -85 149l91 141q17 27 20 28q6 -3 20 -21q25 -32 50 -96q33 -83 33 -155z" />
    <glyph glyph-name="uFEB4" unicode="&#x633;" horiz-adv-x="1458" arabic-form="medial" 
d="M1485 1h-114q-127 0 -207 137q-78 -137 -207 -137q-118 0 -199 137q-77 -137 -196 -137q-128 0 -206 137q-80 -137 -243 -137h-139v257h164q89 0 127 60q15 23 36 111q15 60 49 60q37 0 51 -60q22 -94 32 -112q33 -60 120 -60q86 0 122 60q11 18 36 112q16 60 54 60
q33 0 46 -60q19 -92 31 -112q35 -60 125 -60q77 0 111 60q7 13 36 112q17 60 56 60q33 0 45 -60q17 -86 33 -111q38 -60 133 -60h104v-257z" />
    <glyph glyph-name="u0634" unicode="&#x634;" horiz-adv-x="1902" arabic-form="isolated" 
d="M1899 383q0 -139 -57 -247q-71 -135 -202 -135q-115 0 -190 128q-72 -127 -174 -127q-36 0 -76 14q7 -51 7 -98q0 -243 -184 -360q-152 -96 -409 -96q-231 0 -344 127q-91 102 -91 258q0 79 48 230q56 177 113 177q40 0 40 -56q0 -17 -30.5 -106.5t-30.5 -136.5
q0 -142 113 -199q82 -41 243 -41q158 0 287 49q148 56 148 146q0 56 -87 176q-74 102 -133 154l99 202q11 22 26 0q127 -184 247 -184q73 0 104 60q7 13 31 111q15 60 50 60q33 0 46 -61q19 -88 35 -114q38 -61 131 -61q112 0 112 84q0 42 -86 149l91 141q17 27 20 28
q6 -3 20 -21q25 -32 50 -96q33 -85 33 -155zM1199 862l122 123l123 -123l-123 -122zM1472 862l122 123l123 -123l-123 -122zM1333 1065l122 122l123 -122l-123 -122z" />
    <glyph glyph-name="uFEB6" unicode="&#x634;" horiz-adv-x="2091" arabic-form="final" 
d="M2119 1h-122q-120 0 -199 137q-78 -137 -179 -137q-129 0 -174 128q-55 -127 -168 -127q-36 0 -77 14q7 -51 7 -98q0 -243 -184 -360q-152 -96 -409 -96q-231 0 -344 127q-91 102 -91 258q0 79 48 230q56 177 113 177q40 0 40 -56q0 -17 -30.5 -106.5t-30.5 -136.5
q0 -142 113 -199q82 -41 243 -41q158 0 287 49q148 56 148 146q0 56 -87 176q-74 102 -133 154l99 202q11 22 26 0q128 -185 247 -185q68 0 96 60q5 16 30 112q16 60 55 60q34 0 46 -60q19 -96 27 -112q29 -60 103 -60q70 0 100 60q3 7 31 112q16 60 54 60q33 0 45 -60
q18 -86 33 -111q37 -60 133 -60h104v-257zM1199 862l122 123l123 -123l-123 -122zM1472 862l122 123l123 -123l-123 -122zM1333 1065l122 122l123 -122l-123 -122z" />
    <glyph glyph-name="uFEB7" unicode="&#x634;" horiz-adv-x="1224" arabic-form="initial" 
d="M1221 383q0 -139 -56 -247q-70 -135 -202 -135q-124 0 -205 137q-77 -137 -196 -137q-128 0 -206 137q-80 -137 -243 -137h-139v257h164q89 0 127 60q15 23 36 111q15 60 49 60q37 0 51 -60q22 -94 32 -112q33 -60 120 -60q86 0 122 60q11 18 36 112q16 60 54 60
q33 0 46 -61q19 -94 31 -114q35 -61 125 -61q125 0 125 84q0 42 -85 149l91 141q17 27 20 28q6 -3 20 -21q25 -32 50 -96q33 -83 33 -155zM485 862l123 123l122 -123l-122 -122zM758 862l123 123l122 -123l-122 -122zM619 1065l123 122l122 -122l-122 -122z" />
    <glyph glyph-name="uFEB8" unicode="&#x634;" horiz-adv-x="1458" arabic-form="medial" 
d="M1485 1h-114q-127 0 -207 137q-78 -137 -207 -137q-118 0 -199 137q-77 -137 -196 -137q-128 0 -206 137q-80 -137 -243 -137h-139v257h164q89 0 127 60q15 23 36 111q15 60 49 60q37 0 51 -60q22 -94 32 -112q33 -60 120 -60q86 0 122 60q11 18 36 112q16 60 54 60
q33 0 46 -60q19 -92 31 -112q35 -60 125 -60q77 0 111 60q7 13 36 112q17 60 56 60q33 0 45 -60q17 -86 33 -111q38 -60 133 -60h104v-257zM485 862l123 123l122 -123l-122 -122zM758 862l123 123l122 -123l-122 -122zM619 1065l123 122l122 -122l-122 -122z" />
    <glyph glyph-name="u0635" unicode="&#x635;" horiz-adv-x="1920" arabic-form="isolated" 
d="M1918 458q0 -148 -123 -286q-153 -171 -402 -171q-125 0 -229 36q13 -62 13 -121q0 -233 -172 -352q-148 -102 -391 -102q-231 0 -344 127q-91 102 -91 258q0 79 48 230q56 177 113 177q40 0 40 -56q0 -17 -30.5 -106.5t-30.5 -136.5q0 -142 113 -199q82 -41 243 -41
q158 0 273 52q135 61 135 167q0 55 -82 167q-69 94 -129 146l93 193q15 30 32 2q60 -98 148 -164q308 401 527 401q102 0 172 -58q74 -63 74 -163zM1756 347q0 62 -66 97q-54 29 -121 29q-129 0 -320 -218q83 -6 155 -6q174 0 274 37q78 29 78 61z" />
    <glyph glyph-name="uFEBA" unicode="&#x635;" horiz-adv-x="2031" arabic-form="final" 
d="M2059 1h-126q-144 0 -192 116q-138 -116 -336 -116q-145 0 -241 36q13 -62 13 -121q0 -233 -172 -352q-148 -102 -391 -102q-231 0 -344 127q-91 102 -91 258q0 79 48 230q56 177 113 177q40 0 40 -56q0 -17 -30.5 -106.5t-30.5 -136.5q0 -142 113 -199q82 -41 243 -41
q158 0 273 52q135 61 135 167q0 55 -82 167q-69 94 -129 146l93 193q15 30 32 2q60 -98 148 -164q308 401 527 401q102 0 172 -58q74 -63 74 -163q0 -103 -56 -200h197v-257zM1756 347q0 62 -66 97q-54 29 -121 29q-129 0 -320 -218q83 -6 155 -6q174 0 274 37q78 29 78 61z
" />
    <glyph glyph-name="uFEBB" unicode="&#x635;" horiz-adv-x="1268" arabic-form="initial" 
d="M1261 458q0 -188 -141 -309q-170 -145 -504 -145q-120 0 -189 22q-94 30 -150 111q-83 -136 -229 -136h-74v257h38q121 0 169 61q25 31 42 112q13 61 44 61q36 0 51 -61q23 -91 35 -112q36 -61 119 -61q117 153 235 259q179 162 309 162q102 0 171 -59q74 -62 74 -162z
M1100 347q0 62 -66 97q-54 29 -121 29q-129 0 -320 -218q82 -6 155 -6q173 0 273 37q79 29 79 61z" />
    <glyph glyph-name="uFEBC" unicode="&#x635;" horiz-adv-x="1377" arabic-form="medial" 
d="M1402 1h-126q-139 0 -190 119q-90 -74 -223 -99q-89 -17 -247 -17q-120 0 -189 22q-94 30 -150 111q-83 -136 -229 -136h-74v257h38q121 0 169 61q25 31 42 112q13 61 44 61q36 0 51 -61q23 -91 35 -112q36 -61 119 -61q117 153 235 259q179 162 309 162q102 0 171 -59
q74 -62 74 -162q0 -103 -55 -200h196v-257zM1100 347q0 62 -66 97q-54 29 -121 29q-129 0 -320 -218q82 -6 155 -6q173 0 273 37q79 29 79 61z" />
    <glyph glyph-name="u0636" unicode="&#x636;" horiz-adv-x="1920" arabic-form="isolated" 
d="M1918 458q0 -148 -123 -286q-153 -171 -402 -171q-125 0 -229 36q13 -62 13 -121q0 -233 -172 -352q-148 -102 -391 -102q-231 0 -344 127q-91 102 -91 258q0 79 48 230q56 177 113 177q40 0 40 -56q0 -17 -30.5 -106.5t-30.5 -136.5q0 -142 113 -199q82 -41 243 -41
q158 0 273 52q135 61 135 167q0 55 -82 167q-69 94 -129 146l93 193q15 30 32 2q60 -98 148 -164q308 401 527 401q102 0 172 -58q74 -63 74 -163zM1756 347q0 62 -66 97q-54 29 -121 29q-129 0 -320 -218q83 -6 155 -6q174 0 274 37q78 29 78 61zM1625 979l-135 -136
l-136 136l136 135z" />
    <glyph glyph-name="uFEBE" unicode="&#x636;" horiz-adv-x="2031" arabic-form="final" 
d="M2059 1h-126q-144 0 -192 116q-138 -116 -336 -116q-145 0 -241 36q13 -62 13 -121q0 -233 -172 -352q-148 -102 -391 -102q-231 0 -344 127q-91 102 -91 258q0 79 48 230q56 177 113 177q40 0 40 -56q0 -17 -30.5 -106.5t-30.5 -136.5q0 -142 113 -199q82 -41 243 -41
q158 0 273 52q135 61 135 167q0 55 -82 167q-69 94 -129 146l93 193q15 30 32 2q60 -98 148 -164q308 401 527 401q102 0 172 -58q74 -63 74 -163q0 -103 -56 -200h197v-257zM1756 347q0 62 -66 97q-54 29 -121 29q-129 0 -320 -218q83 -6 155 -6q174 0 274 37q78 29 78 61z
M1625 979l-135 -136l-136 136l136 135z" />
    <glyph glyph-name="uFEBF" unicode="&#x636;" horiz-adv-x="1268" arabic-form="initial" 
d="M1261 458q0 -188 -141 -309q-170 -145 -504 -145q-120 0 -189 22q-94 30 -150 111q-83 -136 -229 -136h-74v257h38q121 0 169 61q25 31 42 112q13 61 44 61q36 0 51 -61q23 -91 35 -112q36 -61 119 -61q117 153 235 259q179 162 309 162q102 0 171 -59q74 -62 74 -162z
M1100 347q0 62 -66 97q-54 29 -121 29q-129 0 -320 -218q82 -6 155 -6q173 0 273 37q79 29 79 61zM1061 979l-135 -136l-136 136l136 135z" />
    <glyph glyph-name="uFEC0" unicode="&#x636;" horiz-adv-x="1377" arabic-form="medial" 
d="M1402 1h-126q-139 0 -190 119q-90 -74 -223 -99q-89 -17 -247 -17q-120 0 -189 22q-94 30 -150 111q-83 -136 -229 -136h-74v257h38q121 0 169 61q25 31 42 112q13 61 44 61q36 0 51 -61q23 -91 35 -112q36 -61 119 -61q117 153 235 259q179 162 309 162q102 0 171 -59
q74 -62 74 -162q0 -103 -55 -200h196v-257zM1100 347q0 62 -66 97q-54 29 -121 29q-129 0 -320 -218q82 -6 155 -6q173 0 273 37q79 29 79 61zM1061 979l-135 -136l-136 136l136 135z" />
    <glyph glyph-name="u0637" unicode="&#x637;" horiz-adv-x="1343" arabic-form="isolated" 
d="M1337 460q0 -257 -243 -373q-180 -86 -470 -86q-195 0 -289 50q-109 58 -161 216q140 -13 340 -9v76q0 396 -91 763l187 171q37 -107 104 -279q3 -6 5 -15q0 -6 -9 -6q-11 0 -70 15q13 -144 13 -254q0 -152 -29 -356q86 96 204 183q171 126 285 126q74 0 140 -49
q84 -62 84 -173zM1181 351q0 50 -58 90q-54 37 -106 37q-166 0 -367 -220h184q102 0 196 15q151 24 151 78z" />
    <glyph glyph-name="uFEC2" unicode="&#x637;" horiz-adv-x="1442" arabic-form="final" 
d="M1468 1h-99q-137 0 -206 116q-128 -82 -307 -105q-85 -11 -276 -11q-318 0 -406 266q140 -13 340 -9v76q0 396 -91 763l187 171q26 -77 103 -278q6 -12 6 -17q0 -6 -9 -6t-70 16q13 -144 13 -254q0 -152 -29 -356q86 96 204 183q171 126 285 126q74 0 140 -49
q84 -62 84 -173q0 -97 -59 -202h190v-257zM1181 351q0 50 -58 90q-54 37 -106 37q-166 0 -367 -220h184q102 0 196 15q151 24 151 78z" />
    <glyph glyph-name="uFEC3" unicode="&#x637;" horiz-adv-x="1017" arabic-form="initial" 
d="M1011 460q0 -240 -212 -361q-171 -98 -431 -98h-396v257h217v76q0 396 -92 763l187 171q28 -80 104 -274q6 -15 6 -19q0 -6 -10 -6q-11 0 -70 14q13 -144 13 -254q0 -152 -29 -356q84 94 205 183q171 126 284 126q74 0 140 -49q84 -62 84 -173zM855 351q0 51 -58 91
q-53 36 -106 36q-166 0 -367 -220h184q102 0 196 15q151 24 151 78z" />
    <glyph glyph-name="uFEC4" unicode="&#x637;" horiz-adv-x="1117" arabic-form="medial" 
d="M1142 1h-99q-141 0 -208 113q-95 -74 -251 -98q-98 -15 -286 -15h-326v257h217v76q0 396 -92 763l187 171q28 -81 104 -275q6 -15 6 -21t-8 -6l-72 17q13 -144 13 -254q0 -152 -29 -356q84 94 205 183q171 126 284 126q74 0 140 -49q84 -62 84 -173q0 -97 -59 -202h190
v-257zM855 351q0 51 -58 91q-53 36 -106 36q-166 0 -367 -220h184q102 0 196 15q151 24 151 78z" />
    <glyph glyph-name="u0638" unicode="&#x638;" horiz-adv-x="1343" arabic-form="isolated" 
d="M1337 460q0 -257 -243 -373q-180 -86 -470 -86q-195 0 -289 50q-109 58 -161 216q140 -13 340 -9v76q0 396 -91 763l187 171q37 -107 104 -279q3 -6 5 -15q0 -6 -9 -6q-11 0 -70 15q13 -144 13 -254q0 -152 -29 -356q86 96 204 183q171 126 285 126q74 0 140 -49
q84 -62 84 -173zM1181 351q0 50 -58 90q-54 37 -106 37q-166 0 -367 -220h184q102 0 196 15q151 24 151 78zM1183 989l-136 -135l-135 135l135 136z" />
    <glyph glyph-name="uFEC6" unicode="&#x638;" horiz-adv-x="1442" arabic-form="final" 
d="M1468 1h-99q-137 0 -206 116q-128 -82 -307 -105q-85 -11 -276 -11q-318 0 -406 266q140 -13 340 -9v76q0 396 -91 763l187 171q26 -77 103 -278q6 -12 6 -17q0 -6 -9 -6t-70 16q13 -144 13 -254q0 -152 -29 -356q86 96 204 183q171 126 285 126q74 0 140 -49
q84 -62 84 -173q0 -97 -59 -202h190v-257zM1181 351q0 50 -58 90q-54 37 -106 37q-166 0 -367 -220h184q102 0 196 15q151 24 151 78zM1183 989l-136 -135l-135 135l135 136z" />
    <glyph glyph-name="uFEC7" unicode="&#x638;" horiz-adv-x="1017" arabic-form="initial" 
d="M1011 460q0 -240 -212 -361q-171 -98 -431 -98h-396v257h217v76q0 396 -92 763l187 171q28 -80 104 -274q6 -15 6 -19q0 -6 -10 -6q-11 0 -70 14q13 -144 13 -254q0 -152 -29 -356q84 94 205 183q171 126 284 126q74 0 140 -49q84 -62 84 -173zM855 351q0 51 -58 91
q-53 36 -106 36q-166 0 -367 -220h184q102 0 196 15q151 24 151 78zM884 989l-136 -135l-136 135l136 136z" />
    <glyph glyph-name="uFEC8" unicode="&#x638;" horiz-adv-x="1117" arabic-form="medial" 
d="M1142 1h-99q-141 0 -208 113q-95 -74 -251 -98q-98 -15 -286 -15h-326v257h217v76q0 396 -92 763l187 171q28 -81 104 -275q6 -15 6 -21t-8 -6l-72 17q13 -144 13 -254q0 -152 -29 -356q84 94 205 183q171 126 284 126q74 0 140 -49q84 -62 84 -173q0 -97 -59 -202h190
v-257zM855 351q0 51 -58 91q-53 36 -106 36q-166 0 -367 -220h184q102 0 196 15q151 24 151 78zM884 989l-136 -135l-136 135l136 136z" />
    <glyph glyph-name="u0639" unicode="&#x639;" horiz-adv-x="1187" arabic-form="isolated" 
d="M1175 -366q-99 -176 -465 -176q-217 0 -360 86q-173 104 -173 307q0 148 123 267q104 101 252 146q-67 20 -119 69q-67 63 -67 143q0 113 116 241q125 137 262 137q52 0 117 -38q79 -46 114 -117q17 -34 17 -49q0 -13 -13 -13q-6 0 -39 10q-86 26 -173 26q-65 0 -149 -24
q-108 -32 -108 -80q0 -44 56 -96q77 -71 214 -71q105 0 290 47q26 7 29 4t-6 -23l-84 -192q-606 -49 -606 -330q0 -158 153 -235q119 -60 293 -60q159 0 305 35q27 7 30 5q-1 -5 -9 -19z" />
    <glyph glyph-name="uFECA" unicode="&#x639;" horiz-adv-x="1225" arabic-form="final" 
d="M1251 1h-56q-261 0 -489 279q-303 -164 -303 -372q0 -158 153 -235q119 -60 293 -60q159 0 305 35q27 7 30 5q-1 -5 -9 -19q-99 -176 -465 -176q-217 0 -360 86q-173 104 -173 307q0 282 452 505q-28 36 -77 82q-6 6 -69 45q-48 30 -48 46q0 42 49 96q81 89 246 89
q102 0 182 -41q94 -48 94 -126q0 -94 -174 -196q107 -93 337 -93h82v-257z" />
    <glyph glyph-name="uFECB" unicode="&#x639;" horiz-adv-x="906" arabic-form="initial" 
d="M898 298l-113 -208q-249 -16 -475 -55q-197 -34 -235 -34h-101v257h247q-28 22 -51.5 73.5t-23.5 88.5q0 111 127 245q135 142 272 142q79 0 155 -59q68 -52 107 -129q18 -35 18 -50q0 -12 -13 -12q-11 0 -40 10q-108 37 -228 37q-74 0 -145 -23q-98 -32 -98 -91
q0 -44 62 -106q80 -81 197 -81q207 0 316 14q22 3 27 -1q3 -3 -5 -18z" />
    <glyph glyph-name="uFECC" unicode="&#x639;" horiz-adv-x="766" arabic-form="medial" 
d="M793 1h-56q-143 0 -232 55q-50 31 -119 116q-153 -171 -354 -171h-58v257h100q141 0 211 54q-120 157 -165 157q-28 0 -28 32q0 44 48 97q80 89 247 89q102 0 182 -41q93 -48 93 -126q0 -56 -67 -123q-20 -20 -107 -90q57 -49 223 -49h82v-257z" />
    <glyph glyph-name="u063A" unicode="&#x63a;" horiz-adv-x="1187" arabic-form="isolated" 
d="M1175 -366q-99 -176 -465 -176q-217 0 -360 86q-173 104 -173 307q0 148 123 267q104 101 252 146q-67 20 -119 69q-67 63 -67 143q0 113 116 241q125 137 262 137q52 0 117 -38q79 -46 114 -117q17 -34 17 -49q0 -13 -13 -13q-6 0 -39 10q-86 26 -173 26q-65 0 -149 -24
q-108 -32 -108 -80q0 -44 56 -96q77 -71 214 -71q105 0 290 47q26 7 29 4t-6 -23l-84 -192q-606 -49 -606 -330q0 -158 153 -235q119 -60 293 -60q159 0 305 35q27 7 30 5q-1 -5 -9 -19zM857 1121l-136 -135l-135 135l135 136z" />
    <glyph glyph-name="uFECE" unicode="&#x63a;" horiz-adv-x="1225" arabic-form="final" 
d="M1251 1h-56q-261 0 -489 279q-303 -164 -303 -372q0 -158 153 -235q119 -60 293 -60q159 0 305 35q27 7 30 5q-1 -5 -9 -19q-99 -176 -465 -176q-217 0 -360 86q-173 104 -173 307q0 282 452 505q-28 36 -77 82q-6 6 -69 45q-48 30 -48 46q0 42 49 96q81 89 246 89
q102 0 182 -41q94 -48 94 -126q0 -94 -174 -196q107 -93 337 -93h82v-257zM910 989l-136 -135l-135 135l135 136z" />
    <glyph glyph-name="uFECF" unicode="&#x63a;" horiz-adv-x="906" arabic-form="initial" 
d="M898 298l-113 -208q-249 -16 -475 -55q-197 -34 -235 -34h-101v257h247q-28 22 -51.5 73.5t-23.5 88.5q0 111 127 245q135 142 272 142q79 0 155 -59q68 -52 107 -129q18 -35 18 -50q0 -12 -13 -12q-11 0 -40 10q-108 37 -228 37q-74 0 -145 -23q-98 -32 -98 -91
q0 -44 62 -106q80 -81 197 -81q207 0 316 14q22 3 27 -1q3 -3 -5 -18zM654 1121l-135 -135l-136 135l136 136z" />
    <glyph glyph-name="uFED0" unicode="&#x63a;" horiz-adv-x="766" arabic-form="medial" 
d="M793 1h-56q-143 0 -232 55q-50 31 -119 116q-153 -171 -354 -171h-58v257h100q141 0 211 54q-120 157 -165 157q-28 0 -28 32q0 44 48 97q80 89 247 89q102 0 182 -41q93 -48 93 -126q0 -56 -67 -123q-20 -20 -107 -90q57 -49 223 -49h82v-257zM522 989l-135 -135
l-136 135l136 136z" />
    <glyph glyph-name="u0641" unicode="&#x641;" horiz-adv-x="1524" arabic-form="isolated" 
d="M1521 418q0 -244 -136 -335q-73 -49 -301 -78q-179 -23 -319 -23q-259 0 -392 59q-196 87 -196 310q0 99 52 194q47 85 78 85q38 0 38 -42q0 -17 -15.5 -62.5t-15.5 -70.5q0 -158 175 -201q78 -19 329 -19q380 0 568 73q36 14 36 53q0 27 -40 23q-127 -12 -179 -12
q-199 0 -199 147q0 121 61 240q74 144 188 144q156 0 225 -204q43 -127 43 -281zM1370 568q-28 69 -85 105q-43 27 -79 27q-32 0 -57.5 -21.5t-25.5 -52.5q0 -70 136 -70q51 0 111 12zM1380 1148l-135 -136l-136 136l136 135z" />
    <glyph glyph-name="uFED2" unicode="&#x641;" horiz-adv-x="1682" arabic-form="final" 
d="M1710 1h-76q-215 0 -371 117q-213 -140 -564 -140q-522 0 -522 373q0 99 52 194q47 85 78 85q38 0 38 -42q0 -17 -15.5 -62.5t-15.5 -70.5q0 -155 172 -202q73 -20 250 -20q275 0 353 40q-65 90 -65 155q0 99 78 216q90 136 203 136q97 0 154 -95q49 -81 49 -190
q0 -144 -74 -222q20 -15 151 -15h125v-257zM1402 441q0 41 -41.5 83t-82.5 42q-47 0 -94 -35q-51 -37 -51 -82q0 -33 50.5 -79t83.5 -46q28 0 77 33q58 39 58 84zM1407 1095l-136 -136l-136 136l136 136z" />
    <glyph glyph-name="uFED3" unicode="&#x641;" horiz-adv-x="636" arabic-form="initial" 
d="M635 418q0 -254 -131 -342q-112 -75 -349 -75h-181v257h207q238 0 319 41q36 18 36 62q0 27 -40 23q-127 -12 -179 -12q-199 0 -199 147q0 121 61 240q74 144 188 144q156 0 225 -204q43 -127 43 -281zM484 568q-28 68 -86 105q-43 27 -78 27q-32 0 -57.5 -21.5
t-25.5 -52.5q0 -70 136 -70q50 0 111 12zM492 1151l-135 -135l-136 135l136 136z" />
    <glyph glyph-name="uFED4" unicode="&#x641;" horiz-adv-x="785" arabic-form="medial" 
d="M811 1h-67q-99 0 -211 43q-88 34 -142 74q-200 -117 -347 -117h-70v257h110q94 0 133 15q-65 90 -65 155q0 99 78 216q90 136 203 136q97 0 154 -95q49 -81 49 -190q0 -144 -74 -222q20 -15 151 -15h98v-257zM530 441q0 41 -41.5 83t-82.5 42q-47 0 -94 -35
q-51 -37 -51 -82q0 -33 50.5 -79t83.5 -46q28 0 77 33q58 39 58 84zM528 1090l-136 -136l-136 136l136 135z" />
    <glyph glyph-name="u0642" unicode="&#x642;" horiz-adv-x="1260" arabic-form="isolated" 
d="M1255 -34q0 -472 -641 -472q-231 0 -344 127q-91 102 -91 257q0 79 48 230q56 177 113 177q40 0 40 -55q0 -18 -30.5 -107t-30.5 -136q0 -142 113 -199q81 -41 243 -42q149 -1 289 38q190 53 190 161q0 27 -12 57q-27 0 -80 -1.5t-80 -1.5q-129 0 -188 28q-80 38 -80 138
q0 129 61 261q75 163 188 163q134 0 218 -149q74 -131 74 -296v-178zM1087 243q-27 67 -85 104q-44 28 -79 28q-32 0 -57.5 -21.5t-25.5 -52.5q0 -70 136 -70q51 0 111 12zM1203 870l-122 -122l-123 122l123 123zM930 870l-122 -122l-123 122l123 123z" />
    <glyph glyph-name="uFED6" unicode="&#x642;" horiz-adv-x="1467" arabic-form="final" 
d="M1491 1h-238q2 -29 2 -56q0 -451 -641 -451q-231 0 -344 127q-91 102 -91 257q0 79 48 230q56 177 113 177q40 0 40 -55q0 -18 -30.5 -107t-30.5 -136q0 -142 113 -199q81 -41 243 -42q149 -1 289 38q190 53 190 161q0 27 -12 57q-27 0 -80 -1.5t-80 -1.5q-129 0 -188 28
q-80 38 -80 138q0 129 61 261q75 163 188 163q125 0 207 -136q59 -98 68 -195h253v-257zM1087 243q-27 67 -85 104q-44 28 -79 28q-32 0 -57.5 -21.5t-25.5 -52.5q0 -70 136 -70q51 0 111 12zM1198 870l-122 -122l-123 122l123 123zM925 870l-123 -122l-122 122l122 123z
" />
    <glyph glyph-name="uFED7" unicode="&#x642;" horiz-adv-x="636" arabic-form="initial" 
d="M635 418q0 -254 -131 -342q-112 -75 -349 -75h-181v257h207q238 0 319 41q36 18 36 62q0 27 -40 23q-127 -12 -179 -12q-199 0 -199 147q0 121 61 240q74 144 188 144q156 0 225 -204q43 -127 43 -281zM484 568q-28 68 -86 105q-43 27 -78 27q-32 0 -57.5 -21.5
t-25.5 -52.5q0 -70 136 -70q50 0 111 12zM604 1150l-122 -122l-123 122l123 123zM331 1150l-122 -122l-123 122l123 123z" />
    <glyph glyph-name="uFED8" unicode="&#x642;" horiz-adv-x="785" arabic-form="medial" 
d="M811 1h-67q-99 0 -211 43q-88 34 -142 74q-200 -117 -347 -117h-70v257h110q94 0 133 15q-65 90 -65 155q0 99 78 216q90 136 203 136q97 0 154 -95q49 -81 49 -190q0 -144 -74 -222q20 -15 151 -15h98v-257zM530 441q0 41 -41.5 83t-82.5 42q-47 0 -94 -35
q-51 -37 -51 -82q0 -33 50.5 -79t83.5 -46q28 0 77 33q58 39 58 84zM657 1038l-122 -123l-123 123l123 122zM384 1038l-122 -123l-123 123l123 122z" />
    <glyph glyph-name="u0643" unicode="&#x643;" horiz-adv-x="1744" arabic-form="isolated" 
d="M1795 1242l-42 -227q-160 -52 -530 -183q124 -124 179 -208q77 -118 77 -236q0 -219 -143 -326q-51 -38 -251 -61q-165 -19 -320 -19q-279 0 -400 52q-188 81 -188 317q0 99 52 194q47 85 78 85q38 0 38 -42q0 -17 -15.5 -62.5t-15.5 -70.5q0 -160 155 -201
q72 -19 349 -19q335 0 455 27q90 20 90 71q0 65 -123 200q-113 124 -209 184l49 258q227 91 715 267z" />
    <glyph glyph-name="uFEDA" unicode="&#x6a9;" horiz-adv-x="2028" arabic-form="final" 
d="M2052 1h-154q-97 0 -205 91q-63 53 -219 228q-7 -160 -138 -258q-51 -38 -251 -61q-165 -19 -320 -19q-279 0 -400 52q-188 81 -188 317q0 99 52 194q47 85 78 85q38 0 38 -42q0 -17 -15.5 -62.5t-15.5 -70.5q0 -160 155 -201q72 -19 349 -19q335 0 455 27q90 20 90 71
q0 65 -123 200q-113 124 -209 184l49 258q419 167 760 278l-52 -228q-177 -56 -565 -193q154 -147 332 -335q136 -144 188 -183q74 -56 154 -56h155v-257z" />
    <glyph glyph-name="uFEDB" unicode="&#x6a9;" horiz-adv-x="777" arabic-form="initial" 
d="M826 1242l-42 -227q-160 -52 -530 -183q124 -124 179 -208q77 -118 77 -236q0 -387 -422 -387h-114v257h77q212 0 285 19q58 15 58 56q0 65 -123 200q-113 124 -209 184l49 258q227 91 715 267z" />
    <glyph glyph-name="uFEDC" unicode="&#x6a9;" horiz-adv-x="1083" arabic-form="medial" 
d="M1110 1h-181q-97 0 -205 91q-63 53 -219 228q-15 -319 -374 -319h-157v257h123q297 0 297 75q0 73 -123 205q-107 115 -209 179l49 258q419 167 760 278l-52 -228q-177 -56 -565 -193q154 -147 332 -335q136 -144 188 -183q74 -56 154 -56h182v-257z" />
    <glyph glyph-name="u06AF" unicode="&#x6af;" horiz-adv-x="1736" arabic-form="isolated" 
d="M1767 1305l-21 -108q-287 -68 -608 -164l34 112q270 84 595 160zM1807 1107l-60 -216q-280 -44 -516 -113q96 -72 167 -174q81 -117 81 -216q0 -219 -143 -326q-51 -38 -251 -61q-165 -19 -320 -19q-279 0 -400 52q-188 81 -188 317q0 99 52 194q47 85 78 85q38 0 38 -42
q0 -17 -15.5 -62.5t-15.5 -70.5q0 -160 155 -201q72 -19 349 -19q335 0 455 27q90 20 90 71q0 64 -123 184q-105 103 -208 167l43 228q205 77 732 195z" />
    <glyph glyph-name="uFB93" unicode="&#x6af;" horiz-adv-x="2028" arabic-form="final" 
d="M1808 1315l-22 -107q-294 -61 -646 -171l34 112q244 75 634 166zM2053 1h-155q-97 0 -205 91q-63 53 -219 228q-8 -167 -129 -258q-48 -36 -255 -60q-173 -20 -325 -20q-279 0 -400 52q-188 81 -188 317q0 99 52 194q47 85 78 85q38 0 38 -42q0 -17 -15.5 -62.5
t-15.5 -70.5q0 -160 155 -201q72 -19 349 -19q335 0 455 27q90 20 90 71q0 64 -123 185q-105 103 -209 169l49 235q482 145 769 193l-66 -217q-318 -50 -560 -116q155 -130 328 -297q141 -136 189 -171q77 -56 157 -56h156v-257z" />
    <glyph glyph-name="uFB94" unicode="&#x6af;" horiz-adv-x="777" arabic-form="initial" 
d="M798 1305l-21 -108q-337 -82 -608 -164l34 112q270 84 595 160zM838 1107l-60 -216q-280 -44 -516 -113q96 -72 167 -174q81 -117 81 -216q0 -209 -109 -301q-101 -86 -313 -86h-114v257h77q212 0 285 19q58 15 58 56q0 64 -122 184q-103 101 -209 167l43 228
q205 77 732 195z" />
    <glyph glyph-name="uFB95" unicode="&#x6af;" horiz-adv-x="1057" arabic-form="medial" 
d="M839 1315l-22 -107q-394 -97 -646 -171l34 112q244 75 634 166zM1083 1h-154q-97 0 -205 91q-63 53 -219 228q-8 -167 -129 -258q-38 -28 -156 -46q-100 -15 -188 -15h-59v257h59q362 0 362 75q0 64 -123 185q-105 103 -209 169l49 235q482 145 769 193l-66 -217
q-318 -50 -560 -116q155 -130 328 -297q141 -136 189 -171q77 -56 157 -56h155v-257z" />
    <glyph glyph-name="u0644" unicode="&#x644;" horiz-adv-x="1211" arabic-form="isolated" 
d="M1198 988q4 -10 6 -17q-2 -4 -12 -4q-17 0 -59 8q15 -239 10 -935q-3 -528 -556 -528q-412 0 -412 369q0 83 43 203q45 126 85 126q37 0 37 -48q0 -27 -18.5 -86.5t-18.5 -90.5q0 -218 312 -218q208 0 318 67q76 46 76 87q0 245 -33 589q-34 358 -82 583l184 165
q16 14 22 -5q35 -103 98 -265z" />
    <glyph glyph-name="uFEDE" unicode="&#x644;" horiz-adv-x="1342" arabic-form="final" 
d="M1368 1h-66q-116 0 -167 73q0 -233 -77 -357q-127 -205 -471 -205q-412 0 -412 369q0 83 43 203q45 126 85 126q37 0 37 -48q0 -27 -18.5 -86.5t-18.5 -90.5q0 -218 312 -218q206 0 315 67q74 46 74 86q0 308 -25 701q-23 357 -42 466l190 165q2 1 6 4t7 3q6 0 6 -13
l9 -803q2 -185 157 -185h56v-257z" />
    <glyph glyph-name="uFEDF" unicode="&#x644;" horiz-adv-x="359" arabic-form="initial" 
d="M352 988q4 -10 6 -17q-2 -4 -12 -4q-17 0 -59 8q20 -341 17 -676q-1 -125 -65 -207q-70 -91 -191 -91h-74v257h67q79 0 104 32q18 23 14 85q-8 134 -39 375q-33 262 -54 343l167 165q14 14 22 -5q27 -86 97 -265z" />
    <glyph glyph-name="uFEE0" unicode="&#x644;" horiz-adv-x="616" arabic-form="medial" 
d="M643 1h-160q-62 0 -119 34q-61 36 -82 92q-29 -52 -83 -88q-57 -38 -114 -38h-111v257h109q145 0 145 137q0 511 -44 687l196 182q16 15 16 -4v-861q0 -141 141 -141h106v-257z" />
    <glyph glyph-name="u0645" unicode="&#x645;" horiz-adv-x="969" arabic-form="isolated" 
d="M966 346q0 -80 -45 -170q-62 -124 -173 -124q-60 0 -178.5 23.5t-178.5 23.5q-69 0 -69 -43q0 -7 1 -17q32 -308 21 -404q-3 -23 -40 -85l-49 -79q-13 -22 -20 -22q-9 0 -11 37q-8 147 -29 377q-18 197 -18 233q0 101 68 161q65 58 168 58q-1 11 -6 43q-4 28 -4 44
q0 67 69 156q76 99 160 99q99 0 219 -118q115 -113 115 -193zM812 288q-42 53 -106 98q-77 54 -132 54q-51 0 -51 -51q0 -88 -1 -69q1 -16 19 -20q74 -16 250 -49q33 -6 33 12q0 10 -12 25z" />
    <glyph glyph-name="uFEE2" unicode="&#x645;" horiz-adv-x="1154" arabic-form="final" 
d="M1181 1h-82q-96 0 -138 39q0 -303 -174 -303q-110 0 -183 97q-88 116 -88 331h-79q-56 0 -78 -11q-33 -16 -33 -67q0 -6 2 -26q30 -304 16 -426q-3 -23 -40 -85l-49 -79q-13 -22 -20 -22q-9 0 -11 37q-6 119 -29 373l-18 203q0 194 140 277q90 53 219 53l45 135
q230 -178 259 -196q119 -73 256 -73h85v-257zM860 26q0 42 -99 123l-136 106v-36q0 -97 35 -168q44 -90 133 -90q67 0 67 65z" />
    <glyph glyph-name="uFEE3" unicode="&#x645;" horiz-adv-x="706" arabic-form="initial" 
d="M705 211q0 -103 -62.5 -167.5t-165.5 -64.5q-137 0 -229 145q-64 -123 -188 -123h-86v257h86q86 0 108 15q18 12 14 55q-8 100 61 189q75 96 188 96q140 0 214 -136q60 -111 60 -266zM583 268q0 60 -42 136q-48 86 -102 86q-68 0 -68 -91q0 -69 36 -144q44 -91 104 -91
q72 0 72 104z" />
    <glyph glyph-name="uFEE4" unicode="&#x645;" horiz-adv-x="909" arabic-form="medial" 
d="M935 1h-94q-55 0 -104 40q-46 37 -67 92q-58 -154 -202 -154q-128 0 -220 145q-64 -123 -188 -123h-86v257h86q86 0 108 15q18 12 14 55q-8 100 60 190q74 98 186 98q150 0 225 -167l63 -141q33 -51 101 -51h118v-256zM583 268q0 60 -42 136q-48 86 -102 86
q-68 0 -68 -91q0 -69 36 -144q44 -91 104 -91q72 0 72 104z" />
    <glyph glyph-name="u0646" unicode="&#x646;" horiz-adv-x="1244" arabic-form="isolated" 
d="M1242 -37q0 -288 -177 -405q-145 -96 -451 -96q-231 0 -344 127q-91 102 -91 258q0 79 48 230q56 177 113 177q40 0 40 -56q0 -17 -30.5 -106.5t-30.5 -136.5q0 -142 113 -199q82 -41 243 -41q150 0 271 32q186 49 186 158q0 57 -77 177q-70 109 -123 156l105 215
q10 21 25 0q180 -258 180 -490zM831 588l-136 -136l-136 136l136 135z" />
    <glyph glyph-name="uFEE6" unicode="&#x646;" horiz-adv-x="1379" arabic-form="final" 
d="M1406 1h-95q-70 0 -111 24q7 -51 7 -98q0 -246 -182 -365q-153 -100 -411 -100q-231 0 -344 127q-91 102 -91 258q0 79 48 230q56 177 113 177q40 0 40 -56q0 -17 -30.5 -106.5t-30.5 -136.5q0 -142 113 -199q82 -41 243 -41q158 0 287 49q148 56 148 146q0 56 -87 176
q-74 102 -133 154l99 202q11 22 26 0q65 -94 103 -128q63 -56 144 -56h144v-257zM804 593l-135 -136l-136 136l136 135z" />
    <glyph glyph-name="uFEE7" unicode="&#x646;" horiz-adv-x="370" arabic-form="initial" 
d="M367 392q0 -148 -57 -251q-78 -140 -240 -140h-96v257h111q144 0 144 54q0 47 -112 170q-13 14 0 32l117 163q15 21 30 5q45 -48 75 -136q28 -82 28 -154zM360 984l-135 -136l-136 136l136 136z" />
    <glyph glyph-name="uFEE8" unicode="&#x646;" horiz-adv-x="715" arabic-form="medial" 
d="M742 1h-95q-77 0 -148.5 40.5t-110.5 106.5q-87 -147 -256 -147h-158v257h118q146 0 202 65q29 33 45 121q12 65 49 65q36 0 47 -65q15 -88 38 -121q46 -65 166 -65h103v-257zM433 894l-136 -136l-136 136l136 136z" />
    <glyph glyph-name="u0648" unicode="&#x648;" horiz-adv-x="782" arabic-form="isolated" 
d="M780 38q0 -261 -178 -452q-56 -60 -71 -60q-251 0 -399 51q-29 10 -2 20q178 64 347 199q185 147 185 245q-22 0 -66.5 -1t-66.5 -1q-136 0 -196 31q-83 43 -83 157q0 106 67 242q81 164 192 164q138 0 213 -160q58 -124 58 -279v-156zM625 291q-27 67 -85 104
q-44 28 -78 28q-31 0 -57 -22t-26 -52q0 -70 112 -70q52 0 134 12z" />
    <glyph glyph-name="uFEEE" unicode="&#x648;" horiz-adv-x="920" arabic-form="final" 
d="M949 1h-176q0 -253 -172 -448q-55 -62 -70 -62q-252 0 -399 51q-28 10 -2 19q173 62 347 200q185 146 185 244h-67l-66 -1q-133 -2 -196 30q-83 42 -83 158q0 105 67 241q81 165 192 165q113 0 187 -119q58 -93 77 -221h176v-257zM625 255q-27 68 -85 105q-44 28 -78 28
q-31 0 -57 -22t-26 -52q0 -70 112 -70q52 0 134 11z" />
    <glyph glyph-name="u0647" unicode="&#x647;" horiz-adv-x="761" arabic-form="isolated" 
d="M760 314q0 -145 -82.5 -231t-226.5 -86q-156 0 -226 88q-48 61 -48 147q0 113 89 275q83 151 156 202q150 -58 225 -126q113 -103 113 -269zM647 316q-98 116 -274 173q-67 -74 -67 -167q0 -50 68 -77q51 -19 111 -19q103 0 156 38q31 22 6 52z" />
    <glyph glyph-name="uFEEA" unicode="&#x647;" horiz-adv-x="982" arabic-form="final" 
d="M1009 1h-125q-161 0 -234 242l-84 -136q-389 0 -389 134q0 71 64 210q113 110 310 189q-10 33 -32 96l140 161q18 -40 91 -434q25 -136 69 -178q28 -27 94 -27h96v-257zM634 317l-54 199q-212 -87 -244 -144q35 -55 298 -55z" />
    <glyph glyph-name="uFEEB" unicode="&#x647;" horiz-adv-x="893" arabic-form="initial" 
d="M891 354q0 -116 -76 -218q-70 -94 -137 -94q-41 0 -152 51.5t-119 51.5q28 0 28 -7q0 -16 -128 -65q-188 -72 -247 -72h-86v257h81q86 0 110 21q-50 42 -50 117q0 79 58 151q52 65 130 100q-41 34 -90 51l97 204q258 -135 381 -233q200 -159 200 -315zM777 299
q0 45 -77 105q-13 10 -97 70q4 -22 4 -40q0 -79 -68 -141q93 -62 180 -62q58 0 58 68zM504 462q0 34 -27.5 71.5t-60.5 37.5q-39 0 -93 -38q-57 -41 -57 -78q0 -36 56 -72q49 -32 78 -32q26 0 61 28q43 35 43 83z" />
    <glyph glyph-name="uFEEC" unicode="&#x647;" horiz-adv-x="934" arabic-form="medial" 
d="M960 1h-90q-107 0 -144 -9q-71 -17 -71 -74q0 -88 169 -158l-86 -236q-245 71 -389 214q-85 84 -119 167l-40 111q-93 -15 -160 -15h-56v257h192q0 264 215 561q75 -89 135 -213q71 -147 71 -255q0 -280 -252 -319q60 -112 209 -191q-8 157 79 281q95 136 246 136h91
v-257zM469 289q0 48 -45 131q-36 66 -66 101q-78 -111 -78 -256q66 0 189 24z" />
    <glyph glyph-name="u0629" unicode="&#x629;" horiz-adv-x="761" arabic-form="isolated" 
d="M760 314q0 -145 -82.5 -231t-226.5 -86q-156 0 -226 88q-48 61 -48 147q0 113 89 275q83 151 156 202q150 -58 225 -126q113 -103 113 -269zM647 316q-98 116 -274 173q-67 -74 -67 -167q0 -50 68 -77q51 -19 111 -19q103 0 156 38q31 22 6 52zM619 1069q4 -15 1 -50
q-3 -36 -12 -47q-141 -36 -352 -129l-1 74l94 48q-26 12 -52 46t-26 61q0 58 68.5 123t127.5 65q29 0 67 -23q42 -25 42 -52q0 -41 -31 -41q-12 0 -46 13.5t-54 13.5q-26 0 -52 -13q-32 -15 -32 -38q0 -35 35 -62t71 -27q29 0 79 16q66 21 73 22z" />
    <glyph glyph-name="uFE94" unicode="&#x6c0;" horiz-adv-x="982" arabic-form="final" 
d="M1009 1h-125q-161 0 -234 242l-84 -136q-389 0 -389 134q0 71 64 210q113 110 310 189q-10 33 -32 96l140 161q18 -40 91 -434q25 -136 69 -178q28 -27 94 -27h96v-257zM634 317l-54 199q-212 -87 -244 -144q35 -55 298 -55zM679 1119q4 -15 1 -50q-3 -36 -12 -47
q-141 -36 -352 -129l-1 74l94 48q-26 12 -52 46t-26 61q0 58 68.5 123t127.5 65q29 0 67 -23q42 -25 42 -52q0 -41 -31 -41q-12 0 -46 13.5t-54 13.5q-26 0 -52 -13q-32 -15 -32 -38q0 -35 35 -62t71 -27q29 0 79 16q66 21 73 22z" />
    <glyph glyph-name="u064A" unicode="&#x64a;" horiz-adv-x="1381" arabic-form="isolated" 
d="M1374 488q5 -26 5 -40q0 -17 -7 -17t-28 11q-52 28 -166 28q-125 0 -217 -86q-71 -67 -71 -109q0 -47 76 -70q40 -12 156 -28q104 -14 144 -46q57 -45 57 -157q0 -279 -244 -397q-163 -79 -423 -79q-477 0 -477 393q0 79 48 230q56 177 113 177q40 0 40 -56
q0 -17 -30.5 -106.5t-30.5 -136.5q0 -253 380 -253q164 0 310 33q198 45 198 126q0 44 -116 58q-170 20 -216 38q-117 45 -117 165q0 134 118 315q132 203 281 203q97 0 163 -84q43 -55 54 -112z" />
    <glyph glyph-name="uFEF2" unicode="&#x6cc;" horiz-adv-x="1431" arabic-form="final" 
d="M1457 1h-86q-54 0 -161.5 15t-161.5 15q-46 0 -86 -12q-59 -18 -59 -53q0 -21 86 -34l104 -10q113 -14 159 -36q58 -28 58 -90q0 -209 -224 -302q-157 -65 -402 -65q-507 0 -507 371q0 101 66 245q63 138 99 138q47 0 47 -42q0 -8 -28 -89.5t-28 -132.5q0 -164 164 -219
q101 -34 327 -34q76 0 203 22q152 26 152 61q0 17 -104 25q-140 10 -194 26q-105 30 -105 102q0 110 105 216q138 140 380 140h196v-257z" />
    <glyph glyph-name="uFEF3" unicode="&#x6cc;" horiz-adv-x="534" arabic-form="initial" 
d="M367 392q0 -148 -57 -251q-78 -140 -240 -140h-96v257h111q144 0 144 54q0 47 -112 170q-13 14 0 32l117 163q15 21 30 5q45 -48 75 -136q28 -82 28 -154zM546 -299l-122 -123l-123 123l123 122zM273 -299l-122 -123l-123 123l123 122z" />
    <glyph glyph-name="uFEF4" unicode="&#x6cc;" horiz-adv-x="715" arabic-form="medial" 
d="M742 1h-95q-77 0 -148.5 40.5t-110.5 106.5q-87 -147 -256 -147h-158v257h118q146 0 202 65q29 33 45 121q12 65 49 65q36 0 47 -65q15 -88 38 -121q46 -65 166 -65h103v-257zM590 -299l-122 -123l-123 123l123 122zM317 -299l-122 -123l-123 123l123 122z" />
    <glyph glyph-name="u0649" unicode="&#x649;" horiz-adv-x="1381" arabic-form="isolated" 
d="M1374 488q5 -26 5 -40q0 -17 -7 -17t-28 11q-52 28 -166 28q-125 0 -217 -86q-71 -67 -71 -109q0 -47 76 -70q40 -12 156 -28q104 -14 144 -46q57 -45 57 -157q0 -279 -244 -397q-163 -79 -423 -79q-477 0 -477 393q0 79 48 230q56 177 113 177q40 0 40 -56
q0 -17 -30.5 -106.5t-30.5 -136.5q0 -253 380 -253q164 0 310 33q198 45 198 126q0 44 -116 58q-170 20 -216 38q-117 45 -117 165q0 134 118 315q132 203 281 203q97 0 163 -84q43 -55 54 -112z" />
    <glyph glyph-name="uFEF0" unicode="&#x649;" horiz-adv-x="1431" arabic-form="final" 
d="M1457 1h-86q-54 0 -161.5 15t-161.5 15q-46 0 -86 -12q-59 -18 -59 -53q0 -21 86 -34l104 -10q113 -14 159 -36q58 -28 58 -90q0 -209 -224 -302q-157 -65 -402 -65q-507 0 -507 371q0 101 66 245q63 138 99 138q47 0 47 -42q0 -8 -28 -89.5t-28 -132.5q0 -164 164 -219
q101 -34 327 -34q76 0 203 22q152 26 152 61q0 17 -104 25q-140 10 -194 26q-105 30 -105 102q0 110 105 216q138 140 380 140h196v-257z" />
    <glyph glyph-name=".notdef" horiz-adv-x="1024" 
d="M128 0v1341h768v-1341h-768zM256 128h512v1085h-512v-1085z" />
    <glyph glyph-name=".null" 
 />
    <glyph glyph-name="nonmarkingreturn" horiz-adv-x="440" 
 />
    <glyph glyph-name="space" unicode=" " horiz-adv-x="440" 
 />
    <glyph glyph-name="exclam" unicode="!" horiz-adv-x="399" 
d="M397 974q0 -71 -23 -216q-27 -167 -32 -251l-15 -230h-62l-17 228q-6 82 -34 256q-24 149 -24 215q0 241 103 241q104 0 104 -243zM399 102q0 -43 -29.5 -72t-72.5 -29t-71.5 29t-28.5 72q0 42 29 71t71 29q41 0 71.5 -29.5t30.5 -70.5z" />
    <glyph glyph-name="percent" unicode="%" horiz-adv-x="1031" 
d="M329 1041q0 -44 -29.5 -73t-73.5 -29q-43 0 -73 29.5t-30 72.5q0 42 30.5 72t72.5 30q43 0 73 -29.5t30 -72.5zM821 1259l-478 -1360l-98 1l481 1361zM918 88q0 -43 -29.5 -73t-72.5 -30q-45 0 -74 29t-29 74q0 43 30 72.5t73 29.5q42 0 72 -30t30 -72z" />
    <glyph glyph-name="parenleft" unicode="(" horiz-adv-x="669" 
d="M242 474q0 -329 266 -609q85 -89 102 -89q9 0 24.5 8t15.5 16q0 -5 -65 103q-186 308 -186 573q0 253 194 587l68 117q0 6 -14.5 13.5t-22.5 7.5q-20 0 -106 -90q-109 -114 -180 -253q-96 -189 -96 -384z" />
    <glyph glyph-name="parenright" unicode=")" horiz-adv-x="601" 
d="M600 474q0 -184 -92 -365q-68 -134 -173 -244q-85 -89 -103 -89q-9 0 -24.5 8t-15.5 16q0 -5 65 103q186 308 186 573q0 253 -194 587l-68 117q0 6 14.5 13.5t22.5 7.5q20 0 106 -90q109 -114 180 -253q96 -189 96 -384z" />
    <glyph glyph-name="asterisk" unicode="*" horiz-adv-x="1104" 
d="M901 632q-79 -47 -151 -63q-5 -2 -9 -2t-6 2q-3 2 0 13q40 146 114 217q25 24 58 24q35 0 59.5 -25.5t24.5 -60.5t-19 -54.5t-71 -50.5zM725 855q0 -112 -77 -238q-6 -10 -10 -10q-5 0 -11 10q-72 127 -72 234q0 81 86 81q32 0 58 -23t26 -54zM1103 467q0 -30 -24 -56
t-54 -26q-117 0 -238 76q-9 6 -10 10q1 6 10 11q126 72 234 72q82 0 82 -87zM725 469q0 -35 -25 -59t-60 -24t-60 24t-25 59q0 36 24.5 60.5t60.5 24.5q35 0 60 -25t25 -60zM968 260q25 -26 25 -59q0 -35 -26 -59.5t-61 -24.5t-55 20q-79 80 -113 222q-2 5 -2 9q0 8 7 8
q148 -37 225 -116zM536 564q-5 0 -9 2q-143 38 -217 114q-24 25 -24 58q0 35 25.5 59.5t60.5 24.5q38 0 64 -29q12 -13 41 -62q48 -81 64 -151q2 -4 2 -9q0 -7 -7 -7zM502 467q0 -5 -10 -11q-123 -70 -234 -70q-82 0 -82 85q0 31 24 57.5t54 26.5q112 0 238 -78
q10 -5 10 -10zM724 89q0 -83 -86 -83q-31 0 -57.5 24t-26.5 55q0 111 77 237q6 10 10 10q5 0 11 -10q72 -128 72 -233zM544 356q-39 -141 -115 -215q-25 -25 -58 -25q-34 0 -59 26t-25 60q0 53 91 106q81 48 151 63q5 2 9 2t6 -2q2 -4 0 -15z" />
    <glyph glyph-name="plus" unicode="+" horiz-adv-x="1013" 
d="M905 338h-345v-344h-101v344h-345v102h345v345h101v-345h345v-102z" />
    <glyph glyph-name="comma" unicode="," horiz-adv-x="481" 
d="M182 113q0 55 39 92t95 37q68 0 116.5 -51.5t48.5 -119.5q0 -144 -158 -272h-103q130 112 130 207q-25 -9 -50 -9q-51 0 -84.5 32.5t-33.5 83.5z" />
    <glyph glyph-name="hyphen" unicode="-" horiz-adv-x="1013" 
d="M905 338h-791v102h791v-102z" />
    <glyph glyph-name="period" unicode="." horiz-adv-x="411" 
d="M408 115q0 -49 -33 -82.5t-82 -33.5t-82 33.5t-33 82.5q0 48 33.5 81.5t81.5 33.5t81.5 -33.5t33.5 -81.5z" />
    <glyph glyph-name="slash" unicode="/" horiz-adv-x="656" 
d="M529 1253l-288 -1360h-107l287 1360h108z" />
    <glyph glyph-name="zero" unicode="0" horiz-adv-x="734" 
d="M610 479l-127 -120q-37 -36 -112 -127q-58 70 -117 134q-31 33 -131 110q62 52 125 114q35 34 115 136l107 -122q37 -40 140 -125z" />
    <glyph glyph-name="zero" unicode="&#x6f0;" horiz-adv-x="734" 
d="M610 479l-127 -120q-37 -36 -112 -127q-58 70 -117 134q-31 33 -131 110q62 52 125 114q35 34 115 136l107 -122q37 -40 140 -125z" />
    <glyph glyph-name="zero" unicode="&#x660;" horiz-adv-x="734" 
d="M610 479l-127 -120q-37 -36 -112 -127q-58 70 -117 134q-31 33 -131 110q62 52 125 114q35 34 115 136l107 -122q37 -40 140 -125z" />
    <glyph glyph-name="one" unicode="1" horiz-adv-x="705" 
d="M556 364q0 -169 -30 -302q-33 -147 -84 -147q-32 0 -40 66q-3 25 -3 118q0 514 -259 884q29 48 158 245q59 -40 140 -233q118 -280 118 -631z" />
    <glyph glyph-name="one" unicode="&#x6f1;" horiz-adv-x="705" 
d="M556 364q0 -169 -30 -302q-33 -147 -84 -147q-32 0 -40 66q-3 25 -3 118q0 514 -259 884q29 48 158 245q59 -40 140 -233q118 -280 118 -631z" />
    <glyph glyph-name="one" unicode="&#x661;" horiz-adv-x="705" 
d="M556 364q0 -169 -30 -302q-33 -147 -84 -147q-32 0 -40 66q-3 25 -3 118q0 514 -259 884q29 48 158 245q59 -40 140 -233q118 -280 118 -631z" />
    <glyph glyph-name="two" unicode="2" horiz-adv-x="995" 
d="M885 1175q0 -169 -89 -282q-97 -122 -262 -122q-18 0 -35 2q63 -239 63 -523q0 -331 -97 -331q-35 0 -45 101q-2 63 -5 127q-11 141 -56 311q-64 242 -251 533l145 247l98 -114q77 -84 205 -84q101 0 162 51q35 29 69 93q27 51 48 51q50 0 50 -60z" />
    <glyph glyph-name="two" unicode="&#x6f2;" horiz-adv-x="995" 
d="M885 1175q0 -169 -89 -282q-97 -122 -262 -122q-18 0 -35 2q63 -239 63 -523q0 -331 -97 -331q-35 0 -45 101q-2 63 -5 127q-11 141 -56 311q-64 242 -251 533l145 247l98 -114q77 -84 205 -84q101 0 162 51q35 29 69 93q27 51 48 51q50 0 50 -60z" />
    <glyph glyph-name="two" unicode="&#x662;" horiz-adv-x="995" 
d="M885 1175q0 -169 -89 -282q-97 -122 -262 -122q-18 0 -35 2q63 -239 63 -523q0 -331 -97 -331q-35 0 -45 101q-2 63 -5 127q-11 141 -56 311q-64 242 -251 533l145 247l98 -114q77 -84 205 -84q101 0 162 51q35 29 69 93q27 51 48 51q50 0 50 -60z" />
    <glyph glyph-name="three" unicode="3" horiz-adv-x="1152" 
d="M1039 1145q0 -115 -48 -223q-61 -138 -166 -138q-56 0 -83.5 12.5t-62.5 55.5q-66 -99 -183 -104q67 -199 67 -485q0 -129 -20 -223q-26 -122 -74 -122q-39 0 -49 97q-3 64 -5 128q-11 143 -62 330q-82 302 -252 509l147 259q25 -20 63 -85q41 -69 64 -91q46 -45 104 -45
q77 0 110 55q14 23 31 101q12 55 42 55q40 0 50 -50q17 -87 19 -91q24 -50 97 -50q57 0 87 51q11 18 34 93q16 51 39 51q51 0 51 -90z" />
    <glyph glyph-name="three" unicode="&#x6f3;" horiz-adv-x="1152" 
d="M1039 1145q0 -115 -48 -223q-61 -138 -166 -138q-56 0 -83.5 12.5t-62.5 55.5q-66 -99 -183 -104q67 -199 67 -485q0 -129 -20 -223q-26 -122 -74 -122q-39 0 -49 97q-3 64 -5 128q-11 143 -62 330q-82 302 -252 509l147 259q25 -20 63 -85q41 -69 64 -91q46 -45 104 -45
q77 0 110 55q14 23 31 101q12 55 42 55q40 0 50 -50q17 -87 19 -91q24 -50 97 -50q57 0 87 51q11 18 34 93q16 51 39 51q51 0 51 -90z" />
    <glyph glyph-name="three" unicode="&#x663;" horiz-adv-x="1152" 
d="M1039 1145q0 -115 -48 -223q-61 -138 -166 -138q-56 0 -83.5 12.5t-62.5 55.5q-66 -99 -183 -104q67 -199 67 -485q0 -129 -20 -223q-26 -122 -74 -122q-39 0 -49 97q-3 64 -5 128q-11 143 -62 330q-82 302 -252 509l147 259q25 -20 63 -85q41 -69 64 -91q46 -45 104 -45
q77 0 110 55q14 23 31 101q12 55 42 55q40 0 50 -50q17 -87 19 -91q24 -50 97 -50q57 0 87 51q11 18 34 93q16 51 39 51q51 0 51 -90z" />
    <glyph glyph-name="four" unicode="4" horiz-adv-x="1033" 
d="M923 903q0 -95 -97 -193q-111 -113 -265 -113q-34 0 -69 6q38 -214 38 -267q0 -130 -13 -240q-23 -196 -80 -196q-49 0 -57 135q-16 250 -36 353q-62 315 -237 542q46 87 148 261q54 -44 137 -178q104 200 282 200q75 0 139 -60q53 -50 53 -77q0 -41 -26 -41
q-23 0 -80 17t-88 17q-83 0 -129 -53q-36 -42 -36 -93q0 -12 4 -23q34 -93 170 -93q92 0 164 60q63 53 68 53q10 0 10 -17z" />
    <glyph glyph-name="four" unicode="&#x6f4;" horiz-adv-x="1033" 
d="M923 903q0 -95 -97 -193q-111 -113 -265 -113q-34 0 -69 6q38 -214 38 -267q0 -130 -13 -240q-23 -196 -80 -196q-49 0 -57 135q-16 250 -36 353q-62 315 -237 542q46 87 148 261q54 -44 137 -178q104 200 282 200q75 0 139 -60q53 -50 53 -77q0 -41 -26 -41
q-23 0 -80 17t-88 17q-83 0 -129 -53q-36 -42 -36 -93q0 -12 4 -23q34 -93 170 -93q92 0 164 60q63 53 68 53q10 0 10 -17z" />
    <glyph glyph-name="four" unicode="&#x664;" horiz-adv-x="1033" 
d="M923 903q0 -95 -97 -193q-111 -113 -265 -113q-34 0 -69 6q38 -214 38 -267q0 -130 -13 -240q-23 -196 -80 -196q-49 0 -57 135q-16 250 -36 353q-62 315 -237 542q46 87 148 261q54 -44 137 -178q104 200 282 200q75 0 139 -60q53 -50 53 -77q0 -41 -26 -41
q-23 0 -80 17t-88 17q-83 0 -129 -53q-36 -42 -36 -93q0 -12 4 -23q34 -93 170 -93q92 0 164 60q63 53 68 53q10 0 10 -17z" />
    <glyph glyph-name="five" unicode="5" horiz-adv-x="1101" 
d="M991 286q0 -143 -59 -238q-70 -113 -205 -113q-109 0 -165 106q-79 -122 -205 -122q-114 0 -178 81q-58 74 -58 191q0 128 114 391q88 203 175 347l-39 45l104 241q9 22 18 22q7 0 21 -18q237 -300 343 -493q134 -245 134 -440zM859 277q0 85 -147 296q-124 178 -226 281
q-59 -107 -128 -287q-76 -198 -76 -265q0 -119 110 -119q72 0 101 45q11 16 29 84q12 45 44 45q40 0 52 -43q20 -72 25 -80q28 -43 107 -43q109 0 109 86z" />
    <glyph glyph-name="five" unicode="&#x6f5;" horiz-adv-x="1101" 
d="M991 286q0 -143 -59 -238q-70 -113 -205 -113q-109 0 -165 106q-79 -122 -205 -122q-114 0 -178 81q-58 74 -58 191q0 128 114 391q88 203 175 347l-39 45l104 241q9 22 18 22q7 0 21 -18q237 -300 343 -493q134 -245 134 -440zM859 277q0 85 -147 296q-124 178 -226 281
q-59 -107 -128 -287q-76 -198 -76 -265q0 -119 110 -119q72 0 101 45q11 16 29 84q12 45 44 45q40 0 52 -43q20 -72 25 -80q28 -43 107 -43q109 0 109 86z" />
    <glyph glyph-name="five" unicode="&#x665;" horiz-adv-x="1101" 
d="M991 286q0 -143 -59 -238q-70 -113 -205 -113q-109 0 -165 106q-79 -122 -205 -122q-114 0 -178 81q-58 74 -58 191q0 128 114 391q88 203 175 347l-39 45l104 241q9 22 18 22q7 0 21 -18q237 -300 343 -493q134 -245 134 -440zM859 277q0 85 -147 296q-124 178 -226 281
q-59 -107 -128 -287q-76 -198 -76 -265q0 -119 110 -119q72 0 101 45q11 16 29 84q12 45 44 45q40 0 52 -43q20 -72 25 -80q28 -43 107 -43q109 0 109 86z" />
    <glyph glyph-name="six" unicode="6" horiz-adv-x="1008" 
d="M894 846q-6 -41 -33 -143q-30 -117 -43 -127l-83 -30q-171 -66 -380 -333q-82 -104 -156 -224q-37 -60 -63 -60q-24 0 -24 52q0 6 2 26q13 129 105 309q42 82 160 228q-222 54 -222 257q0 101 116 237q163 190 283 190q71 0 142 -58q74 -61 74 -130q0 -38 -20 -38
q-23 0 -98 24t-115 24q-100 0 -167 -60q-56 -50 -56 -101q0 -70 83 -115q70 -38 145 -38q48 0 185 78t154 78q18 0 11 -46z" />
    <glyph glyph-name="six" unicode="&#x6f6;" horiz-adv-x="1008" 
d="M894 846q-6 -41 -33 -143q-30 -117 -43 -127l-83 -30q-171 -66 -380 -333q-82 -104 -156 -224q-37 -60 -63 -60q-24 0 -24 52q0 6 2 26q13 129 105 309q42 82 160 228q-222 54 -222 257q0 101 116 237q163 190 283 190q71 0 142 -58q74 -61 74 -130q0 -38 -20 -38
q-23 0 -98 24t-115 24q-100 0 -167 -60q-56 -50 -56 -101q0 -70 83 -115q70 -38 145 -38q48 0 185 78t154 78q18 0 11 -46z" />
    <glyph glyph-name="six" unicode="&#x666;" horiz-adv-x="1008" 
d="M894 846q-6 -41 -33 -143q-30 -117 -43 -127l-83 -30q-171 -66 -380 -333q-82 -104 -156 -224q-37 -60 -63 -60q-24 0 -24 52q0 6 2 26q13 129 105 309q42 82 160 228q-222 54 -222 257q0 101 116 237q163 190 283 190q71 0 142 -58q74 -61 74 -130q0 -38 -20 -38
q-23 0 -98 24t-115 24q-100 0 -167 -60q-56 -50 -56 -101q0 -70 83 -115q70 -38 145 -38q48 0 185 78t154 78q18 0 11 -46z" />
    <glyph glyph-name="seven" unicode="7" horiz-adv-x="1128" 
d="M1019 941q-185 -231 -281 -493q-36 -98 -91 -346q-37 -168 -71 -168q-41 0 -70 124q-56 236 -106 375q-107 294 -290 498l92 281q9 28 16 28q6 0 23 -19q109 -122 207 -372q83 -212 124 -415q33 195 105 396q92 257 207 393q14 17 21 17q6 0 16 -28z" />
    <glyph glyph-name="seven" unicode="&#x6f7;" horiz-adv-x="1128" 
d="M1019 941q-185 -231 -281 -493q-36 -98 -91 -346q-37 -168 -71 -168q-41 0 -70 124q-56 236 -106 375q-107 294 -290 498l92 281q9 28 16 28q6 0 23 -19q109 -122 207 -372q83 -212 124 -415q33 195 105 396q92 257 207 393q14 17 21 17q6 0 16 -28z" />
    <glyph glyph-name="seven" unicode="&#x667;" horiz-adv-x="1128" 
d="M1019 941q-185 -231 -281 -493q-36 -98 -91 -346q-37 -168 -71 -168q-41 0 -70 124q-56 236 -106 375q-107 294 -290 498l92 281q9 28 16 28q6 0 23 -19q109 -122 207 -372q83 -212 124 -415q33 195 105 396q92 257 207 393q14 17 21 17q6 0 16 -28z" />
    <glyph glyph-name="eight" unicode="8" horiz-adv-x="1163" 
d="M144 231q185 230 281 492q36 99 91 347q37 168 71 168q41 0 70 -125q54 -232 106 -374q109 -297 290 -499l-92 -281q-9 -28 -16 -28q-6 0 -24 20q-109 122 -207 372q-82 211 -123 414q-33 -194 -106 -395q-92 -255 -207 -393q-14 -17 -20 -17q-7 0 -17 27z" />
    <glyph glyph-name="eight" unicode="&#x6f8;" horiz-adv-x="1163" 
d="M144 231q185 230 281 492q36 99 91 347q37 168 71 168q41 0 70 -125q54 -232 106 -374q109 -297 290 -499l-92 -281q-9 -28 -16 -28q-6 0 -24 20q-109 122 -207 372q-82 211 -123 414q-33 -194 -106 -395q-92 -255 -207 -393q-14 -17 -20 -17q-7 0 -17 27z" />
    <glyph glyph-name="eight" unicode="&#x668;" horiz-adv-x="1163" 
d="M144 231q185 230 281 492q36 99 91 347q37 168 71 168q41 0 70 -125q54 -232 106 -374q109 -297 290 -499l-92 -281q-9 -28 -16 -28q-6 0 -24 20q-109 122 -207 372q-82 211 -123 414q-33 -194 -106 -395q-92 -255 -207 -393q-14 -17 -20 -17q-7 0 -17 27z" />
    <glyph glyph-name="nine" unicode="9" horiz-adv-x="995" 
d="M882 196l-82 -281q-169 125 -219 344q-22 97 -21 291q-83 -8 -134 -8q-309 0 -309 206q0 104 66 264q91 221 238 221q293 0 293 -475q0 -273 57 -409q29 -69 111 -153zM532 816q-1 63 -48 108t-110 45q-53 0 -84 -34q-23 -26 -23 -54q0 -76 120 -76q119 0 145 11z" />
    <glyph glyph-name="nine" unicode="&#x6f9;" horiz-adv-x="995" 
d="M882 196l-82 -281q-169 125 -219 344q-22 97 -21 291q-83 -8 -134 -8q-309 0 -309 206q0 104 66 264q91 221 238 221q293 0 293 -475q0 -273 57 -409q29 -69 111 -153zM532 816q-1 63 -48 108t-110 45q-53 0 -84 -34q-23 -26 -23 -54q0 -76 120 -76q119 0 145 11z" />
    <glyph glyph-name="nine" unicode="&#x669;" horiz-adv-x="995" 
d="M882 196l-82 -281q-169 125 -219 344q-22 97 -21 291q-83 -8 -134 -8q-309 0 -309 206q0 104 66 264q91 221 238 221q293 0 293 -475q0 -273 57 -409q29 -69 111 -153zM532 816q-1 63 -48 108t-110 45q-53 0 -84 -34q-23 -26 -23 -54q0 -76 120 -76q119 0 145 11z" />
    <glyph glyph-name="colon" unicode=":" horiz-adv-x="410" 
d="M408 115q0 -49 -33 -82.5t-82 -33.5t-82 33.5t-33 82.5q0 48 33.5 81.5t81.5 33.5t81.5 -33.5t33.5 -81.5zM408 652q0 -48 -33.5 -82t-81.5 -34q-49 0 -82 33.5t-33 82.5q0 48 33.5 81.5t81.5 33.5t81.5 -33.5t33.5 -81.5z" />
    <glyph glyph-name="equal" unicode="=" horiz-adv-x="969" 
d="M840 224h-722v102h722v-102zM840 462h-722v102h722v-102z" />
    <glyph glyph-name="bracketleft" unicode="[" horiz-adv-x="640" 
d="M539 -101h-325v1645h325v-62h-182v-1521h182v-62z" />
    <glyph glyph-name="bracketright" unicode="]" horiz-adv-x="640" 
d="M419 -101h-284v62h141v1520h-141v61h284v-1643z" />
    <glyph glyph-name="braceleft" unicode="{" horiz-adv-x="981" 
d="M832 -320q-152 27 -249 129q-103 107 -103 257q0 61 26 177q19 85 19 112q0 97 -72 163q-67 62 -166 73v38q239 52 239 219q0 47 -16 122q-27 126 -27 188q0 151 101 257q96 102 248 127v-40q-94 -14 -155 -73q-67 -64 -67 -155q0 -46 13 -115q30 -160 30 -210
q0 -224 -286 -336q283 -116 283 -350q0 -49 -27 -179q-17 -82 -17 -135q0 -180 226 -233v-36z" />
    <glyph glyph-name="braceright" unicode="}" horiz-adv-x="981" 
d="M695 593q-239 -52 -239 -220q0 -52 15 -122q28 -131 28 -187q0 -151 -101 -257q-96 -102 -248 -127v40q94 14 155 73q66 63 66 155q0 48 -12 114q-30 164 -30 211q0 223 285 336q-282 116 -282 349q0 55 26 180q18 87 18 135q0 180 -226 233v36q152 -28 249 -129
q103 -106 103 -257q0 -57 -27 -177q-18 -80 -18 -113q0 -97 73 -162q64 -58 165 -74v-37z" />
    <glyph glyph-name="guillemotleft" unicode="&#xab;" horiz-adv-x="854" 
d="M804 129h-93l-340 400l340 393h87l-226 -393zM497 129h-89l-338 400l340 393h87l-226 -393z" />
    <glyph glyph-name="guillemotright" unicode="&#xbb;" horiz-adv-x="854" 
d="M784 529l-338 -400h-89l226 400l-226 393h87zM483 529l-340 -400h-93l232 400l-226 393h87z" />
    <glyph glyph-name="multiply" unicode="&#xd7;" horiz-adv-x="973" 
d="M865 61l-76 -74l-306 306l-308 -307l-72 75l306 306l-304 307l70 73l307 -307l305 307l75 -73l-304 -306z" />
    <glyph glyph-name="divide" unicode="&#xf7;" horiz-adv-x="946" 
d="M549 772q0 -36 -23.5 -61.5t-59.5 -25.5q-35 0 -60.5 26t-25.5 61q0 36 25 59.5t61 23.5q35 0 59 -24t24 -59zM835 452h-730v83h730v-83zM549 215q0 -36 -23.5 -61t-59.5 -25q-35 0 -60.5 25.5t-25.5 60.5q0 36 25 60.5t61 24.5q83 0 83 -85z" />
    <glyph glyph-name="zeronojoin" unicode="&#x200c;" horiz-adv-x="37" 
 />
    <glyph glyph-name="zerojoin" unicode="&#x200d;" horiz-adv-x="37" 
 />
    <glyph glyph-name="lefttoright" unicode="&#x200e;" horiz-adv-x="37" 
d="M243 1294l-108 -110l-27 23l71 71h-142v-1278h-37v1312h174l-66 67l27 25z" />
    <glyph glyph-name="righttoleft" unicode="&#x200f;" horiz-adv-x="37" 
d="M37 0h-37v1278h-142l69 -71l-23 -23l-113 110l113 110l23 -25l-67 -67h177v-1312z" />
    <glyph glyph-name="quoteleft" unicode="&#x2018;" horiz-adv-x="491" 
d="M467 1486q-89 -59 -154 -145q-76 -101 -76 -193q0 -55 32 -98q39 47 90 47q102 0 102 -100q0 -59 -48 -92q-43 -30 -104 -30q-82 0 -133 50.5t-51 132.5q0 141 108 283q97 127 234 200v-55z" />
    <glyph glyph-name="quoteright" unicode="&#x2019;" horiz-adv-x="491" 
d="M444 1353q0 -143 -107 -281q-91 -118 -232 -200v56q228 162 228 338q0 62 -33 101q-33 -49 -95 -49q-41 0 -69.5 28t-28.5 69q0 58 49 93q43 31 104 31q86 0 135 -50t49 -136z" />
    <glyph glyph-name="quotedblleft" unicode="&#x201c;" horiz-adv-x="650" 
d="M572 1146q-13 -6 -41 -26q-52 -51 -52 -95q82 -22 82 -112q0 -45 -31.5 -78t-76.5 -33q-52 0 -84 42q-29 38 -29 92q0 201 203 359q0 -83 1 -93q4 -40 28 -56zM302 1146q-13 -6 -41 -26q-52 -51 -52 -95q82 -22 82 -112q0 -45 -31.5 -78t-76.5 -33q-52 0 -84 42
q-29 38 -29 92q0 201 203 359q0 -83 1 -93q4 -40 28 -56z" />
    <glyph glyph-name="quotedblright" unicode="&#x201d;" horiz-adv-x="650" 
d="M580 1151q0 -201 -203 -359q0 83 -1 93q-4 40 -28 56q13 6 41 26q52 51 52 95q-82 22 -82 112q0 46 31 78.5t77 32.5q54 0 85 -41q28 -37 28 -93zM310 1151q0 -201 -203 -359q0 83 -1 93q-4 40 -28 56q13 6 41 26q52 51 52 95q-82 22 -82 112q0 46 31 78.5t77 32.5
q54 0 85 -41q28 -37 28 -93z" />
    <glyph glyph-name="guilsinglleft" unicode="&#x2039;" horiz-adv-x="512" 
d="M457 966l-228 -382l222 -380v-75l-383 455l389 457v-75z" />
    <glyph glyph-name="guilsinglright" unicode="&#x203a;" horiz-adv-x="512" 
d="M457 586l-393 -457v75l231 382l-222 381v77z" />
    <glyph glyph-name="u060C" unicode="&#x60c;" horiz-adv-x="481" 
d="M479 127q0 -55 -39 -92t-95 -37q-68 0 -116.5 51.5t-48.5 119.5q0 144 158 272h103q-130 -112 -130 -207q25 9 50 9q51 0 84.5 -32.5t33.5 -83.5z" />
    <glyph glyph-name="u061B" unicode="&#x61b;" horiz-adv-x="484" 
d="M452 115q0 -49 -33 -82.5t-82 -33.5t-82 33.5t-33 82.5q0 48 33.5 81.5t81.5 33.5t81.5 -33.5t33.5 -81.5zM479 567q0 -56 -38.5 -92t-95.5 -36q-68 0 -116.5 51t-48.5 120q0 144 158 272h103q-130 -112 -130 -207q25 8 50 8q52 0 85 -32t33 -84z" />
    <glyph glyph-name="u061F" unicode="&#x61f;" horiz-adv-x="764" 
d="M760 960q0 -64 -35 -118q-39 -61 -100 -61q-38 0 -67 25.5t-29 63.5q0 115 102 115q32 0 68 -18q9 49 -37 101q-55 62 -148 62q-75 0 -121 -50.5t-46 -126.5q0 -79 99 -251.5t99 -267.5q0 -26 -3 -50l-15 -121l-50 3l7 102q5 71 -70 144l-145 141q-79 100 -79 231
q0 126 89 221t214 95q105 0 184 -66q83 -70 83 -174zM582 90q0 -37 -26.5 -63t-63.5 -26t-63 26t-26 63t26 63t63 26t63.5 -26t26.5 -63z" />
    <glyph glyph-name="u0640" unicode="&#x640;" horiz-adv-x="935" 
d="M972 1h-998v257h998v-257z" />
    <glyph glyph-name="u064B" unicode="&#x64b;" 
d="M476 1484l-391 -138v106l391 137v-105zM476 1696l-391 -139v106l391 137v-104z" />
    <glyph glyph-name="u064C" unicode="&#x64c;" 
d="M502 1630q0 -88 -66 -129q17 -22 44 -29l-59 -87q-42 7 -88 42q-130 -65 -190 -65q-17 0 -69 49q-11 10 -11 15q12 4 63 16q17 4 23 27q14 49 -28 49q-29 0 -49 -21l-35 34q41 46 83 46q66 0 83 -44q14 -38 -15 -76q52 11 87 30q-23 35 -23 70q0 65 73 123q61 48 95 48
t58 -31.5t24 -66.5zM419 1598q0 47 -35 47q-16 0 -31 -18t-15 -34q0 -39 37 -60q44 28 44 65z" />
    <glyph glyph-name="u064D" unicode="&#x64d;" 
d="M480 -982l-391 -138v105l391 138v-105zM480 -771l-391 -138v106l391 137v-105z" />
    <glyph glyph-name="u064E" unicode="&#x64e;" 
d="M476 1484l-391 -138v106l391 137v-105z" />
    <glyph glyph-name="u064F" unicode="&#x64f;" 
d="M502 1630q0 -88 -66 -129q17 -22 44 -29l-59 -87q-42 7 -88 42q-141 -70 -185 -70q-24 0 -86 59q-13 12 -13 18q0 9 39 11q122 8 187 42q-23 35 -23 70q0 65 73 123q61 48 95 48t58 -31.5t24 -66.5zM419 1598q0 47 -35 47q-16 0 -31 -18t-15 -34q0 -36 39 -58
q42 33 42 63z" />
    <glyph glyph-name="u0650" unicode="&#x650;" 
d="M466 -775l-391 -138v105l391 138v-105z" />
    <glyph glyph-name="u0651" unicode="&#x651;" 
d="M484 1557q0 -59 -25 -103q-30 -53 -85 -53q-59 0 -92 29q-58 -82 -118 -82q-94 0 -94 123q0 40 11 76q16 52 46 52q11 0 14 -65q2 -59 49 -59q39 0 53.5 78t27.5 78q17 0 37 -58.5t59 -58.5q46 0 46 51q0 20 -11 78l62 39q20 -41 20 -125z" />
    <glyph glyph-name="u0652" unicode="&#x652;" 
d="M410 1521q0 -73 -35 -119q-39 -52 -109 -52q-54 0 -90.5 32.5t-36.5 85.5q0 54 28 124q35 88 85 88q51 0 99 -38q59 -46 59 -121zM354 1497q0 31 -38 60t-71 29q-49 0 -49 -68q0 -57 86 -57q72 0 72 36z" />
    <glyph glyph-name="uE820" unicode="&#xe820;" 
d="M485 1028l-391 -138v106l391 137v-105z" />
    <glyph glyph-name="uE821" unicode="&#xe821;" 
d="M520 1215q0 -88 -66 -129q17 -22 44 -29l-59 -87q-42 7 -88 42q-141 -70 -185 -70q-24 0 -86 59q-13 12 -13 18q0 9 39 11q122 8 187 42q-23 35 -23 70q0 65 73 123q61 48 95 48t58 -31.5t24 -66.5zM437 1183q0 47 -35 47q-16 0 -31 -18t-15 -34q0 -36 39 -58
q42 33 42 63z" />
    <glyph glyph-name="uE822" unicode="&#xe822;" 
d="M382 1087q0 -73 -35 -119q-39 -52 -109 -52q-54 0 -90.5 32.5t-36.5 85.5q0 54 28 124q35 88 85 88q51 0 99 -38q59 -46 59 -121zM326 1063q0 31 -38 60t-71 29q-49 0 -49 -68q0 -57 86 -57q72 0 72 36z" />
    <glyph glyph-name="uE823" unicode="&#xe823;" 
d="M467 1046l-391 -138v106l391 137v-105zM467 1258l-391 -139v106l391 137v-104z" />
    <glyph glyph-name="uE824" unicode="&#xe824;" 
d="M557 1210q0 -88 -66 -129q17 -22 44 -29l-59 -87q-42 7 -88 42q-130 -65 -190 -65q-17 0 -69 49q-11 10 -11 15q12 4 63 16q17 4 23 27q14 49 -28 49q-29 0 -49 -21l-35 34q41 46 83 46q66 0 83 -44q14 -38 -15 -76q52 11 87 30q-23 35 -23 70q0 65 73 123q61 48 95 48
t58 -31.5t24 -66.5zM474 1178q0 47 -35 47q-16 0 -31 -18t-15 -34q0 -39 37 -60q44 28 44 65z" />
    <glyph glyph-name="uE825" unicode="&#xe825;" 
d="M484 1105q0 -59 -25 -103q-30 -53 -85 -53q-59 0 -92 29q-58 -82 -118 -82q-94 0 -94 123q0 40 11 76q16 52 46 52q11 0 14 -65q2 -59 49 -59q39 0 53.5 78t27.5 78q17 0 37 -58.5t59 -58.5q46 0 46 51q0 20 -11 78l62 39q20 -41 20 -125z" />
    <glyph glyph-name="uE826" unicode="&#xe826;" 
d="M404 -472l-391 -138v105l391 138v-105z" />
    <glyph glyph-name="uE827" unicode="&#xe827;" 
d="M386 -704l-391 -138v105l391 138v-105zM386 -493l-391 -138v106l391 137v-105z" />
    <glyph glyph-name="uE828" unicode="&#xe828;" 
d="M498 1126q0 -59 -25 -103q-30 -53 -85 -53q-59 0 -92 29q-58 -82 -118 -82q-94 0 -94 123q0 40 11 76q16 52 46 52q11 0 14 -65q2 -59 49 -59q39 0 53.5 78t27.5 78q17 0 37 -58.5t59 -58.5q46 0 46 51q0 20 -11 78l62 39q20 -41 20 -125zM494 1438l-391 -138v106
l391 137v-105z" />
    <glyph glyph-name="uE829" unicode="&#xe829;" 
d="M434 1525q0 -88 -66 -130q17 -21 44 -29l-59 -87q-42 8 -88 42q-141 -70 -185 -70q-23 0 -86 60q-13 12 -13 17q0 9 39 11q122 7 187 42q-23 35 -23 71q0 66 72 123q61 48 96 48q34 0 58 -31.5t24 -66.5zM351 1492q0 48 -35 48q-15 0 -30.5 -18.5t-15.5 -33.5
q0 -36 39 -58q42 32 42 62zM416 1117q0 -61 -24 -104q-29 -53 -86 -53q-59 0 -92 29q-58 -82 -118 -82q-94 0 -94 124q0 127 57 127q11 0 14 -64q2 -60 49 -60q39 0 53.5 78.5t27.5 78.5q17 0 37 -58.5t59 -58.5q46 0 46 51q0 20 -11 77l62 39q20 -40 20 -124z" />
    <glyph glyph-name="uE82A" unicode="&#xe82a;" 
d="M416 1117q0 -61 -24 -104q-29 -53 -86 -53q-59 0 -92 29q-58 -82 -118 -82q-94 0 -94 124q0 127 57 127q11 0 14 -64q2 -60 49 -60q39 0 53.5 78.5t27.5 78.5q17 0 37 -58.5t59 -58.5q46 0 46 51q0 20 -11 77l62 39q20 -40 20 -124zM408 1343l-392 -138v106l392 137v-105
zM408 1555l-392 -139v106l392 138v-105z" />
    <glyph glyph-name="uE82B" unicode="&#xe82b;" 
d="M516 1110q0 -59 -25 -103q-30 -53 -85 -53q-59 0 -92 29q-58 -82 -118 -82q-94 0 -94 123q0 40 11 76q16 52 46 52q11 0 14 -65q2 -59 49 -59q39 0 53.5 78t27.5 78q17 0 37 -58.5t59 -58.5q46 0 46 51q0 20 -11 78l62 39q20 -41 20 -125zM536 1600q0 -88 -66 -129
q17 -22 44 -29l-59 -87q-42 7 -88 42q-130 -65 -190 -65q-17 0 -69 49q-11 10 -11 15q12 4 63 16q17 4 23 27q14 49 -28 49q-29 0 -49 -21l-35 34q41 46 83 46q66 0 83 -44q14 -38 -15 -76q52 11 87 30q-23 35 -23 70q0 65 73 123q61 48 95 48t58 -31.5t24 -66.5zM453 1568
q0 47 -35 47q-16 0 -31 -18t-15 -34q0 -39 37 -60q44 28 44 65z" />
    <glyph glyph-name="uE82C" unicode="&#xe82c;" 
d="M628 1044l-392 -138v105l392 138v-105zM639 1357q0 -59 -25 -103q-30 -53 -85 -53q-59 0 -93 29q-58 -82 -118 -82q-94 0 -94 123q0 39 11 76q16 52 46 52q11 0 14 -65q2 -59 50 -59q39 0 53.5 78t27.5 78q17 0 37 -58.5t59 -58.5q46 0 46 51q0 20 -12 78l63 39
q20 -41 20 -125z" />
    <glyph glyph-name="uE82D" unicode="&#xe82d;" 
d="M388 1237l-392 -138v105l392 138v-105zM399 1550q0 -59 -25 -103q-30 -53 -85 -53q-59 0 -93 29q-58 -82 -118 -82q-94 0 -94 123q0 39 11 76q16 52 46 52q11 0 14 -65q2 -59 50 -59q39 0 53.5 78t27.5 78q17 0 37 -58.5t59 -58.5q46 0 46 51q0 20 -12 78l63 39
q20 -41 20 -125zM388 1044l-392 -138v105l392 138v-105z" />
    <glyph glyph-name="u0621" unicode="&#x621;" horiz-adv-x="694" 
d="M694 312l-37 -148q-82 -15 -235 -70q-166 -60 -248 -109v93q45 47 134 102q-124 55 -124 134q0 87 102 185t189 98q51 0 95 -22q53 -27 53 -73q0 -63 -48 -63q-23 0 -68 13t-69 13q-32 0 -73 -29.5t-41 -60.5q0 -27 46 -65q55 -46 123 -46q48 0 201 48z" />
    <glyph glyph-name="periodcentered" unicode="&#xb7;" horiz-adv-x="405" 
d="M326 768q0 -50 -35.5 -85t-85.5 -35q-49 0 -84.5 35.5t-35.5 84.5t34.5 85t83.5 36q51 0 87 -35t36 -86z" />
    <glyph glyph-name="periodcentered" unicode="&#x2219;" horiz-adv-x="405" 
d="M326 768q0 -50 -35.5 -85t-85.5 -35q-49 0 -84.5 35.5t-35.5 84.5t34.5 85t83.5 36q51 0 87 -35t36 -86z" />
    <glyph glyph-name="periodcentered" unicode="&#x2d9;" horiz-adv-x="405" 
d="M326 768q0 -50 -35.5 -85t-85.5 -35q-49 0 -84.5 35.5t-35.5 84.5t34.5 85t83.5 36q51 0 87 -35t36 -86z" />
  </font>
</defs>
</svg>
